<?xml version="1.0" standalone="no"?>
<!DOCTYPE svg PUBLIC "-//W3C//DTD SVG 20010904//EN"
 "http://www.w3.org/TR/2001/REC-SVG-20010904/DTD/svg10.dtd">
<svg version="1.0" xmlns="http://www.w3.org/2000/svg"
 width="1441.000000pt" height="403.000000pt" viewBox="0 0 1441.000000 403.000000"
 preserveAspectRatio="xMidYMid meet">

<g transform="translate(0.000000,403.000000) scale(0.100000,-0.100000)"
fill="#000000" stroke="none">
<path d="M1177 3503 c-4 -3 -7 -150 -7 -325 l0 -318 -108 0 c-72 0 -114 -4
-126 -13 -16 -12 -17 -60 -14 -752 l3 -740 28 -100 c53 -197 137 -336 284
-475 194 -184 417 -268 683 -257 147 6 242 28 366 86 297 140 508 426 553 755
7 49 11 328 11 771 0 617 -2 695 -16 709 -12 13 -39 16 -125 16 l-109 0 -2
323 -3 322 -275 3 c-169 2 -289 -1 -311 -7 -19 -6 -55 -31 -80 -55 l-44 -45
-27 34 c-15 18 -47 43 -71 54 -41 20 -60 21 -323 21 -155 0 -284 -3 -287 -7z
m590 -62 c28 -13 49 -33 65 -60 19 -34 28 -41 53 -41 24 0 34 7 52 39 15 25
38 46 66 60 41 20 60 21 295 21 l252 0 0 -300 0 -300 -252 0 c-153 0 -269 -4
-293 -11 -25 -7 -56 -27 -80 -53 l-41 -42 -41 42 c-24 25 -56 47 -79 53 -23 7
-144 11 -296 11 l-258 0 0 300 0 300 258 0 c231 0 261 -2 299 -19z m-563 -929
c114 -145 205 -266 202 -270 -17 -16 -105 -5 -163 21 -75 33 -169 50 -229 41
l-44 -6 0 253 c0 214 2 251 14 239 7 -8 106 -133 220 -278z m1596 40 l0 -249
-87 0 c-74 0 -99 -4 -153 -28 -72 -30 -156 -52 -166 -43 -5 5 394 568 403 568
2 0 3 -112 3 -248z m-1230 79 c0 -16 4 -21 15 -17 24 9 19 -41 -6 -54 -26 -14
-65 -6 -73 16 -5 12 -1 14 17 9 18 -6 20 -5 10 6 -16 16 -17 53 -2 80 10 20
11 20 24 2 8 -10 15 -29 15 -42z m225 -10 c-4 -9 0 -11 11 -7 21 8 15 -43 -7
-57 -21 -13 -65 -2 -73 19 -5 12 -1 14 17 9 18 -6 20 -5 10 6 -16 16 -17 54
-2 81 11 20 12 20 30 -8 10 -16 17 -35 14 -43z m220 0 c-3 -8 0 -11 10 -8 23
9 28 -11 11 -38 -20 -31 -56 -32 -82 -4 -19 21 -19 22 3 15 20 -7 21 -5 10 23
-8 22 -8 36 2 57 l12 28 20 -30 c10 -16 17 -35 14 -43z m221 3 c-4 -12 -1 -14
14 -9 15 5 20 2 20 -11 0 -42 -60 -70 -88 -42 -17 17 -15 29 3 21 13 -5 14 -2
4 20 -9 20 -9 33 1 56 l12 31 20 -25 c11 -14 17 -32 14 -41z m-656 -130 c0
-55 -24 -254 -30 -254 -8 0 -16 61 -26 193 l-7 87 32 0 c27 0 31 -3 31 -26z
m220 -14 c0 -62 -22 -240 -30 -240 -6 0 -30 213 -30 263 0 12 8 17 30 17 28 0
30 -2 30 -40z m230 38 c0 -2 -7 -59 -15 -128 -8 -69 -15 -132 -15 -140 0 -8
-3 -10 -9 -5 -7 9 -31 206 -31 258 0 13 9 17 35 17 19 0 35 -1 35 -2z m220
-10 c0 -31 -30 -261 -34 -266 -7 -6 -14 30 -21 108 -3 36 -8 89 -11 118 l-6
52 36 0 c22 0 36 -5 36 -12z m-1061 -457 c85 -40 153 -48 236 -27 35 9 67 16
70 16 3 0 5 -38 5 -85 0 -95 -9 -111 -85 -146 -57 -27 -97 -23 -173 13 -59 29
-79 33 -170 36 l-103 4 3 101 c3 97 4 102 28 115 37 19 115 8 189 -27z m1576
25 l35 -15 0 -103 0 -103 -103 0 c-94 0 -108 -3 -176 -34 -90 -40 -141 -39
-205 6 l-41 29 -3 97 -3 96 38 -16 c58 -25 174 -22 243 6 139 58 157 61 215
37z m-855 -226 c0 -74 15 -78 50 -15 25 46 40 54 58 32 8 -9 4 -24 -14 -57
-33 -58 -19 -71 40 -36 l45 26 12 -22 c13 -23 10 -27 -51 -61 -44 -24 -33 -41
28 -45 43 -3 52 -6 52 -22 0 -16 -9 -19 -52 -22 -28 -2 -53 -8 -55 -15 -2 -6
16 -23 41 -38 51 -30 50 -29 36 -56 -11 -19 -12 -19 -56 7 -59 35 -73 22 -40
-36 18 -33 22 -48 14 -57 -19 -23 -35 -14 -59 32 -34 63 -49 59 -49 -15 0 -57
-1 -60 -25 -60 -22 0 -24 4 -27 57 -2 31 -8 58 -13 60 -6 2 -22 -17 -37 -42
-29 -47 -34 -50 -57 -36 -13 8 -11 18 12 60 34 61 23 72 -37 38 -32 -18 -47
-22 -55 -14 -20 20 -12 35 32 59 61 34 56 52 -15 56 -50 3 -58 6 -58 22 0 17
7 20 54 20 73 0 81 21 21 56 -45 26 -52 38 -36 62 7 11 17 9 49 -12 68 -43 87
-29 47 33 -29 47 -31 57 -9 65 22 8 31 1 54 -45 31 -60 50 -52 50 21 0 57 1
60 25 60 24 0 25 -3 25 -60z m-715 -243 c90 -40 178 -43 242 -9 23 12 46 22
51 22 4 0 14 -29 21 -65 13 -62 12 -67 -9 -98 -59 -86 -156 -106 -265 -53 -51
25 -75 30 -162 34 l-103 4 0 89 c0 94 2 97 54 109 47 10 94 1 171 -33z m1588
21 c14 -7 17 -23 17 -98 l0 -90 -85 0 c-74 0 -98 -5 -180 -36 -110 -42 -158
-41 -222 5 -58 42 -69 69 -54 136 7 30 14 55 16 55 2 0 31 -7 66 -16 76 -19
141 -13 224 22 99 43 165 49 218 22z m-1616 -433 c111 -50 211 -54 318 -14 28
11 51 19 53 19 2 0 -256 -347 -275 -369 -8 -11 -81 71 -133 151 -73 111 -120
225 -99 239 19 13 73 3 136 -26z m1561 29 c12 -4 22 -14 22 -23 0 -56 -199
-372 -234 -371 -14 1 -290 370 -277 370 6 0 12 -4 16 -9 3 -5 38 -17 78 -26
87 -20 155 -14 246 22 57 23 107 40 121 42 3 0 15 -2 28 -5z m-593 -199 l16
-55 57 0 57 -1 -44 -38 -45 -38 16 -57 c9 -31 15 -56 14 -56 -2 0 -23 15 -47
34 l-43 35 -50 -37 c-30 -22 -47 -30 -44 -20 4 9 12 35 19 58 14 47 16 43 -59
99 l-27 20 62 1 62 0 16 55 c8 30 17 55 20 55 2 0 11 -25 20 -55z m-454 -2
l15 -48 59 -5 60 -5 -47 -34 c-27 -19 -48 -35 -48 -35 0 -1 7 -23 15 -50 22
-71 20 -72 -30 -32 l-45 37 -45 -37 c-50 -40 -55 -34 -30 36 8 23 15 43 15 45
0 1 -21 17 -47 36 l-48 34 60 5 59 5 15 48 c8 26 17 47 21 47 4 0 13 -21 21
-47z"/>
<path d="M1447 3155 c-103 -207 -106 -215 -82 -215 21 0 31 12 60 70 l35 70
103 0 103 0 34 -70 c27 -57 38 -70 57 -70 13 0 23 2 23 5 0 13 -211 425 -218
425 -4 0 -56 -97 -115 -215z m121 -23 c-39 -2 -73 -1 -75 2 -3 2 12 37 33 76
l38 72 37 -73 37 -74 -70 -3z"/>
<path d="M2112 3329 c-67 -33 -97 -80 -97 -150 0 -68 21 -102 83 -137 60 -34
55 -52 -13 -52 -48 0 -55 -2 -55 -20 0 -18 7 -20 65 -20 l65 0 0 54 c0 51 -1
54 -41 80 -54 36 -75 83 -55 130 43 102 220 116 277 22 37 -61 15 -129 -51
-156 -29 -12 -30 -15 -30 -71 l0 -59 65 0 c58 0 65 2 65 20 0 18 -7 20 -55 20
-70 0 -72 16 -7 57 94 58 108 157 34 237 -61 65 -169 85 -250 45z"/>
<path d="M11111 2824 c-11 -31 -21 -58 -21 -60 0 -2 13 -4 29 -4 23 0 40 12
81 60 l52 60 -60 0 -59 0 -22 -56z"/>
<path d="M12762 2827 c-28 -66 -28 -67 7 -67 23 0 40 12 81 60 l52 60 -59 0
-59 0 -22 -53z"/>
<path d="M6229 2724 c-84 -25 -130 -103 -115 -192 11 -74 66 -118 190 -158 45
-14 91 -32 104 -40 30 -20 29 -64 -3 -97 -59 -58 -153 -38 -190 41 l-20 43
-49 -5 c-27 -3 -51 -8 -54 -11 -3 -3 2 -29 11 -59 20 -62 72 -116 132 -136 56
-19 163 -8 216 21 55 31 89 93 89 161 0 106 -45 153 -187 198 -53 16 -104 37
-115 46 -44 41 -3 97 70 97 50 0 81 -18 97 -56 12 -30 15 -31 66 -28 30 1 55
4 56 5 2 2 -4 25 -12 53 -20 66 -65 107 -135 122 -65 14 -94 13 -151 -5z"/>
<path d="M11489 2727 c-129 -37 -195 -154 -187 -330 6 -139 49 -220 143 -270
32 -17 57 -22 126 -22 78 0 90 3 135 30 96 60 141 168 131 316 -8 123 -60 214
-149 260 -49 25 -141 32 -199 16z m151 -116 c56 -29 80 -87 80 -189 0 -139
-51 -212 -150 -212 -50 0 -88 21 -118 65 -45 65 -46 218 -3 289 39 63 124 84
191 47z"/>
<path d="M13137 2726 c-67 -18 -117 -62 -152 -131 -28 -56 -30 -67 -30 -175 0
-100 3 -122 24 -167 62 -139 228 -194 367 -122 163 84 196 396 56 532 -66 64
-172 89 -265 63z m179 -137 c41 -40 54 -81 54 -174 -1 -125 -58 -205 -148
-205 -89 0 -145 61 -158 173 -8 64 9 149 36 187 49 69 154 79 216 19z"/>
<path d="M3172 2483 c4 -272 6 -284 68 -336 37 -32 88 -47 155 -47 108 0 182
46 204 125 6 24 11 135 11 273 l0 232 -54 0 -55 0 -3 -236 -3 -236 -28 -24
c-40 -34 -114 -34 -149 1 -35 35 -38 58 -38 291 l0 204 -56 0 -56 0 4 -247z"/>
<path d="M3737 2724 c-4 -4 -7 -144 -7 -311 l0 -303 55 0 55 0 2 196 3 197
109 -197 108 -196 59 0 59 0 0 310 0 310 -55 0 -55 0 0 -207 0 -208 -113 205
-113 205 -50 3 c-27 2 -53 0 -57 -4z"/>
<path d="M4297 2724 c-4 -4 -7 -144 -7 -311 l0 -303 60 0 60 0 -2 308 -3 307
-50 3 c-28 2 -54 0 -58 -4z"/>
<path d="M4460 2723 c0 -5 44 -144 97 -310 l98 -303 62 0 62 0 87 268 c48 147
93 286 100 310 l13 43 -62 -3 -62 -3 -64 -217 c-35 -120 -67 -218 -70 -218 -4
0 -24 55 -44 123 -21 67 -52 166 -69 220 l-31 97 -58 0 c-33 0 -59 -3 -59 -7z"/>
<path d="M5030 2420 l0 -310 215 0 215 0 0 50 0 50 -155 0 -155 0 0 85 0 85
141 0 140 0 -3 53 -3 52 -137 3 -138 3 0 64 0 65 151 0 150 0 -3 53 -3 52
-207 3 -208 2 0 -310z"/>
<path d="M5558 2724 c-5 -4 -8 -144 -8 -311 l0 -303 60 0 60 0 0 131 0 132 42
-6 c52 -7 65 -21 148 -157 l62 -100 64 0 c35 0 64 3 64 6 0 16 -108 193 -138
226 -19 21 -33 40 -31 41 2 1 22 11 43 22 59 30 79 64 83 138 3 50 0 69 -19
102 -38 66 -75 78 -263 83 -88 2 -163 1 -167 -4z m310 -120 c17 -12 22 -25 22
-59 0 -60 -22 -73 -133 -81 l-87 -7 0 82 0 81 88 0 c63 0 94 -4 110 -16z"/>
<path d="M6637 2724 c-4 -4 -7 -144 -7 -311 l0 -303 60 0 60 0 -2 308 -3 307
-50 3 c-28 2 -54 0 -58 -4z"/>
<path d="M6858 2724 c-5 -4 -8 -144 -8 -312 l0 -304 153 4 c151 3 155 4 203
33 73 46 105 114 112 240 6 122 -14 205 -65 265 -56 65 -79 73 -243 78 -80 2
-148 1 -152 -4z m296 -133 c37 -35 50 -85 50 -181 -2 -149 -33 -188 -158 -197
l-76 -6 0 208 0 207 79 -3 c67 -4 83 -8 105 -28z"/>
<path d="M7575 2713 c-4 -10 -47 -130 -95 -268 -49 -137 -95 -269 -104 -293
l-15 -43 62 3 62 3 20 68 20 67 114 -2 114 -3 22 -65 22 -65 63 -3 c50 -2 61
0 57 11 -3 8 -53 148 -112 311 l-108 296 -57 0 c-46 0 -59 -4 -65 -17z m104
-253 c17 -52 31 -98 31 -103 0 -8 -134 -10 -142 -1 -4 3 10 53 29 111 19 57
39 101 43 96 4 -4 22 -51 39 -103z"/>
<path d="M7980 2420 l0 -312 153 4 c174 4 213 17 259 85 45 68 53 101 53 223
-1 127 -18 185 -73 244 -46 48 -84 58 -244 64 l-148 5 0 -313z m300 175 c38
-34 50 -77 49 -177 -1 -161 -26 -194 -151 -204 l-78 -7 0 208 0 207 79 -3 c61
-3 84 -9 101 -24z"/>
<path d="M8768 2724 c-5 -4 -8 -144 -8 -312 l0 -304 153 4 c174 4 213 17 259
85 45 68 53 101 53 223 0 98 -4 122 -23 165 -28 61 -66 103 -112 123 -38 17
-309 30 -322 16z m272 -117 c13 -7 35 -28 47 -46 20 -30 23 -46 23 -138 0
-167 -24 -200 -154 -210 l-76 -6 0 207 0 206 68 0 c37 0 78 -6 92 -13z"/>
<path d="M9330 2420 l0 -310 210 0 210 0 0 50 0 50 -155 0 -155 0 0 85 0 85
140 0 140 0 0 55 0 55 -140 0 -140 0 0 65 0 65 150 0 150 0 0 55 0 55 -205 0
-205 0 0 -310z"/>
<path d="M10540 2419 l0 -311 178 4 c162 4 181 6 214 26 55 34 87 116 74 187
-8 40 -60 105 -84 105 -12 0 -10 7 10 28 37 39 48 65 48 112 0 47 -17 85 -52
118 -32 30 -110 42 -265 42 l-123 0 0 -311z m312 184 c28 -25 24 -77 -8 -102
-22 -17 -41 -21 -110 -21 l-84 0 0 70 0 70 92 0 c71 0 95 -4 110 -17z m17
-247 c28 -26 29 -88 1 -116 -17 -17 -33 -20 -110 -20 -49 0 -93 -1 -97 -2 -5
-2 -9 35 -11 80 l-3 84 100 -4 c80 -2 103 -7 120 -22z"/>
<path d="M11100 2420 l0 -310 55 0 55 0 0 310 0 310 -55 0 -55 0 0 -310z"/>
<path d="M12190 2421 l0 -311 143 1 c195 0 233 8 273 52 39 42 58 104 49 158
-8 43 -45 94 -76 104 -19 6 -18 8 10 41 68 77 47 194 -42 241 -25 13 -70 17
-194 21 l-163 5 0 -312z m314 177 c22 -31 20 -71 -5 -94 -17 -15 -40 -20 -110
-22 l-89 -4 0 71 0 71 94 0 c87 0 96 -2 110 -22z m-5 -233 c32 -16 41 -33 41
-76 0 -53 -29 -69 -124 -69 -46 0 -91 -3 -100 -6 -14 -5 -16 6 -16 80 l0 86
85 0 c56 0 96 -5 114 -15z"/>
<path d="M12750 2420 l0 -310 55 0 55 0 0 310 0 310 -55 0 -55 0 0 -310z"/>
<path d="M9850 2415 l0 -305 195 0 195 0 0 50 0 49 -137 3 -138 3 -3 253 -2
252 -55 0 -55 0 0 -305z"/>
<path d="M11912 2333 l3 -58 105 0 105 0 3 58 3 57 -111 0 -111 0 3 -57z"/>
<path d="M4090 1665 l0 -245 35 0 c28 0 35 4 35 20 0 18 2 18 36 -5 102 -69
224 14 224 152 0 99 -45 162 -124 170 -35 4 -54 1 -81 -16 -20 -11 -38 -21
-41 -21 -2 0 -4 43 -4 95 l0 95 -40 0 -40 0 0 -245z m220 0 c32 -34 34 -111 4
-152 -25 -33 -74 -42 -109 -19 -43 28 -45 136 -4 177 28 28 80 25 109 -6z"/>
<path d="M5060 1665 l0 -245 35 0 c29 0 35 4 35 22 0 21 0 21 26 -3 21 -20 36
-24 84 -24 51 0 63 4 91 30 42 40 59 83 59 147 0 129 -110 207 -208 148 -18
-11 -35 -20 -37 -20 -3 0 -5 43 -5 95 l0 95 -40 0 -40 0 0 -245z m223 -7 c47
-64 14 -170 -55 -176 -48 -4 -78 22 -85 75 -7 52 2 88 28 114 29 29 86 23 112
-13z"/>
<path d="M6480 1665 l0 -245 40 0 40 0 0 245 0 245 -40 0 -40 0 0 -245z"/>
<path d="M4502 1878 c-28 -28 -7 -78 33 -78 27 0 45 18 45 45 0 27 -18 45 -45
45 -12 0 -26 -5 -33 -12z"/>
<path d="M5470 1876 c-31 -38 9 -89 54 -68 45 20 30 82 -20 82 -12 0 -27 -7
-34 -14z"/>
<path d="M3231 1716 l-44 -45 96 -3 97 -3 -97 -103 -96 -104 31 -31 32 -32 99
99 99 99 7 -98 8 -97 38 38 38 39 2 140 3 140 -135 3 -134 3 -44 -45z"/>
<path d="M4745 1746 c-69 -31 -103 -101 -92 -193 13 -116 138 -178 247 -121
54 28 80 70 86 140 6 62 -22 128 -68 162 -35 25 -130 32 -173 12z m121 -69
c57 -50 36 -186 -31 -203 -56 -14 -95 32 -95 111 0 54 15 90 44 103 33 17 53
14 82 -11z"/>
<path d="M5715 1746 c-64 -29 -95 -85 -95 -170 0 -123 116 -197 236 -151 66
25 99 79 99 159 -1 71 -20 114 -67 147 -39 28 -128 36 -173 15z m106 -56 c48
-26 64 -121 29 -177 -35 -58 -105 -53 -131 10 -41 99 25 208 102 167z"/>
<path d="M6239 1737 c-62 -32 -92 -91 -87 -170 7 -94 61 -148 155 -155 80 -5
111 8 106 45 -5 29 -5 29 -61 25 -52 -4 -60 -1 -85 23 -22 23 -27 36 -27 80 0
43 5 57 27 79 24 24 34 27 82 25 56 -3 56 -3 59 28 2 25 -1 32 -20 37 -47 12
-106 6 -149 -17z"/>
<path d="M3690 1653 c1 -137 11 -181 50 -216 29 -26 39 -29 82 -25 32 4 57 13
73 28 l25 23 0 -21 c0 -19 6 -22 40 -22 l40 0 0 165 0 165 -45 0 -45 0 0 -115
c0 -102 -2 -117 -20 -135 -27 -27 -75 -26 -94 2 -12 17 -16 49 -16 135 l0 113
-45 0 -45 0 0 -97z"/>
<path d="M4490 1585 l0 -165 45 0 45 0 0 165 0 165 -45 0 -45 0 0 -165z"/>
<path d="M5460 1585 l0 -165 45 0 45 0 0 165 0 165 -45 0 -45 0 0 -165z"/>
<path d="M6018 1509 c-21 -12 -24 -69 -6 -87 7 -7 22 -12 34 -12 49 0 72 61
36 93 -21 19 -39 21 -64 6z"/>
</g>
</svg>
