<?xml version="1.0" standalone="no"?>
<!DOCTYPE svg PUBLIC "-//W3C//DTD SVG 20010904//EN"
 "http://www.w3.org/TR/2001/REC-SVG-20010904/DTD/svg10.dtd">
<svg version="1.0" xmlns="http://www.w3.org/2000/svg"
 width="1240.000000pt" height="822.000000pt" viewBox="0 0 1240.000000 822.000000"
 preserveAspectRatio="xMidYMid meet">

<g transform="translate(0.000000,822.000000) scale(0.100000,-0.100000)"
fill="#000000" stroke="none">
<path d="M4812 7814 l-22 -15 0 -630 0 -629 -224 0 c-221 0 -225 0 -240 -22
-14 -20 -16 -167 -16 -1371 0 -890 4 -1381 11 -1445 41 -373 169 -703 383
-987 85 -113 304 -328 416 -408 116 -83 358 -204 501 -251 373 -123 788 -123
1157 -1 565 189 1024 648 1207 1210 45 139 79 293 95 440 6 55 10 618 10 1440
0 1206 -2 1353 -16 1373 -15 22 -19 22 -245 22 l-229 0 0 629 0 630 -22 15
c-20 14 -86 16 -518 16 -314 0 -518 -4 -556 -11 -87 -16 -165 -62 -241 -142
l-66 -71 -16 25 c-54 86 -179 168 -286 188 -37 7 -241 11 -560 11 -437 0 -503
-2 -523 -16z m1167 -129 c60 -33 112 -88 147 -157 l24 -48 55 0 c51 0 56 2 65
28 30 81 93 151 173 188 l52 24 503 0 502 0 0 -585 0 -585 -485 0 c-320 0
-502 -4 -537 -11 -104 -22 -193 -82 -245 -164 -15 -25 -30 -45 -33 -44 -3 0
-25 28 -50 61 -28 38 -65 73 -100 94 -103 62 -121 64 -667 64 l-493 0 0 585 0
586 518 -3 517 -3 54 -30z m-1135 -1790 c234 -297 422 -543 418 -547 -4 -4
-34 -13 -66 -20 -77 -15 -147 -1 -258 52 -135 65 -226 83 -390 78 l-138 -3 0
494 c0 272 2 492 4 490 2 -2 195 -247 430 -544z m3146 46 l0 -499 -37 9 c-61
14 -252 10 -323 -7 -36 -8 -116 -37 -178 -65 -80 -36 -131 -51 -176 -56 -110
-10 -109 -9 32 188 163 227 676 929 680 929 1 0 2 -225 2 -499z m-2420 212
c12 -16 21 -40 20 -58 -3 -48 -1 -50 24 -26 21 19 24 20 30 6 22 -59 -33 -135
-97 -135 -39 0 -91 36 -100 69 -4 18 -3 18 29 5 46 -19 48 -18 22 17 -31 42
-29 93 7 154 28 49 29 50 36 23 4 -15 17 -40 29 -55z m867 3 c18 -22 24 -38
21 -63 -4 -36 14 -46 31 -16 14 26 26 8 26 -39 0 -101 -151 -135 -193 -43 -16
36 -16 36 23 19 47 -19 48 -19 20 22 -33 48 -31 78 7 144 29 49 33 52 36 30 2
-13 15 -38 29 -54z m-415 -34 c9 -18 9 -28 1 -42 -7 -10 -9 -20 -6 -24 10 -10
43 14 43 32 0 15 2 15 10 2 5 -8 10 -32 10 -53 0 -31 -7 -45 -31 -68 -43 -41
-99 -40 -140 0 -16 16 -29 36 -29 45 0 13 4 13 35 0 40 -16 43 -12 15 23 -32
41 -22 115 23 171 10 13 29 -11 69 -86z m856 24 c23 -30 29 -61 12 -71 -15 -9
-2 -25 15 -19 8 3 17 15 21 26 5 16 8 18 15 7 5 -8 9 -26 9 -41 0 -94 -106
-143 -171 -79 -29 29 -43 74 -16 54 6 -6 22 -12 34 -15 l21 -6 -19 32 c-23 38
-24 86 -3 129 29 57 37 63 49 35 5 -13 20 -37 33 -52z m-1268 -293 c0 -67 -53
-508 -62 -518 -6 -6 -12 -5 -17 3 -9 14 -51 433 -51 505 l0 47 65 0 65 0 0
-37z m430 -20 c0 -32 -11 -155 -25 -273 -14 -118 -25 -218 -25 -222 0 -11 -30
-10 -30 0 0 4 -11 115 -25 246 -14 131 -25 253 -25 272 l0 34 65 0 65 0 0 -57z
m439 20 c0 -21 -12 -146 -27 -278 -22 -194 -30 -240 -42 -240 -12 0 -19 40
-37 205 -12 113 -22 238 -22 278 l-1 72 65 0 65 0 -1 -37z m431 -15 c0 -29
-11 -150 -25 -268 -14 -117 -25 -220 -25 -227 0 -7 -6 -13 -14 -13 -10 0 -17
15 -20 43 -12 86 -46 443 -46 479 l0 38 65 0 65 0 0 -52z m-2249 -808 c29 -6
100 -32 158 -59 148 -67 186 -76 326 -75 103 0 132 4 200 27 44 15 83 27 88
27 4 0 7 -78 7 -173 l0 -173 -27 -26 c-88 -81 -179 -118 -288 -118 -65 0 -81
4 -142 36 -145 78 -306 112 -461 100 -46 -4 -90 -10 -98 -13 -12 -4 -14 26
-14 199 l0 204 29 17 c58 34 135 43 222 27z m3279 -21 l50 -21 0 -205 0 -204
-52 8 c-91 14 -256 6 -339 -16 -42 -11 -114 -39 -160 -62 -77 -39 -92 -43
-177 -47 -88 -4 -96 -3 -156 27 -34 17 -84 49 -109 72 l-47 41 0 178 0 178 88
-32 c80 -28 97 -31 212 -31 115 0 133 3 217 32 51 18 120 46 154 63 34 17 80
35 103 40 61 13 159 4 216 -21z m-1700 -434 c0 -105 0 -106 27 -116 30 -11 24
-19 90 98 l46 82 39 -21 c21 -12 38 -26 38 -31 0 -5 -23 -49 -50 -98 -51 -88
-51 -88 -31 -108 19 -19 20 -19 106 35 47 30 88 54 91 54 7 0 44 -64 44 -77 0
-6 -41 -35 -91 -63 -64 -37 -89 -56 -85 -67 3 -8 6 -19 6 -24 0 -5 50 -9 110
-9 l110 0 0 -45 0 -45 -105 0 c-105 0 -106 0 -116 -26 -5 -15 -8 -28 -7 -29 2
-1 41 -26 88 -55 47 -29 87 -54 89 -56 7 -7 -32 -84 -42 -84 -6 0 -46 23 -89
50 -43 28 -82 50 -87 50 -4 0 -15 -8 -24 -18 -15 -16 -12 -24 34 -106 27 -49
49 -92 49 -96 0 -7 -65 -50 -75 -50 -2 0 -27 41 -55 91 -47 81 -55 90 -79 87
l-26 -3 -3 -106 c-3 -101 -4 -107 -25 -113 -12 -3 -32 -3 -44 0 -21 6 -23 13
-25 113 -3 105 -3 106 -28 109 -21 2 -30 -6 -54 -50 -16 -29 -40 -70 -53 -91
-23 -36 -24 -37 -51 -23 -54 28 -54 35 -1 126 27 47 49 89 49 93 0 5 -7 15
-15 23 -13 13 -25 9 -106 -36 -50 -27 -93 -50 -95 -50 -2 0 -13 18 -24 39 -23
45 -27 40 83 101 76 43 86 56 71 94 -5 13 -25 16 -110 16 l-104 0 0 45 0 44
108 3 c101 3 107 4 110 24 3 18 -13 32 -85 75 -48 29 -89 53 -91 55 -5 3 38
84 45 84 5 0 80 -45 159 -97 18 -11 23 -10 42 10 l21 23 -53 89 c-58 97 -59
103 -4 131 l27 14 43 -76 c59 -104 68 -115 96 -108 21 6 22 11 22 115 l0 109
45 0 45 0 0 -105z m-1545 -416 c22 -6 81 -31 130 -55 202 -97 356 -99 539 -7
37 19 69 33 71 31 1 -2 8 -34 14 -73 7 -38 19 -94 28 -123 15 -47 15 -55 1
-85 -24 -51 -111 -140 -165 -169 -26 -15 -76 -31 -111 -38 -83 -15 -147 -2
-272 56 -53 24 -127 51 -165 60 -74 18 -254 24 -317 11 l-38 -8 0 179 c0 178
0 180 24 195 53 35 181 48 261 26z m3253 -19 l42 -24 0 -178 c0 -98 -4 -178
-8 -178 -5 0 -45 5 -90 11 -137 18 -273 -8 -459 -90 -148 -65 -262 -62 -371 9
-71 45 -95 70 -132 133 l-27 48 18 59 c10 33 21 82 25 110 5 42 10 50 23 45
95 -37 147 -48 246 -52 135 -7 229 14 374 81 115 53 122 55 231 52 68 -2 93
-7 128 -26z m-3196 -835 c182 -81 218 -89 383 -90 162 0 237 15 350 72 27 14
45 19 39 12 -6 -8 -131 -175 -278 -371 -146 -197 -270 -358 -274 -358 -26 0
-190 196 -274 326 -42 66 -132 251 -169 347 -40 106 -37 110 68 103 55 -3 93
-13 155 -41z m3148 30 c12 -7 -61 -189 -126 -315 -30 -58 -85 -147 -122 -199
-70 -99 -208 -261 -220 -260 -4 0 -132 167 -285 371 -153 204 -272 368 -265
365 155 -68 235 -87 374 -87 118 0 217 22 338 76 120 53 163 64 234 59 35 -2
67 -7 72 -10z m-2099 -383 l36 -107 112 -3 113 -3 -91 -70 c-50 -39 -91 -71
-91 -72 0 -1 16 -54 34 -117 19 -63 34 -116 33 -117 -1 -1 -44 32 -95 73 l-92
75 -91 -71 c-50 -40 -93 -69 -96 -66 -4 4 35 133 64 213 3 6 -37 42 -89 80
l-93 68 115 5 115 5 34 112 c19 62 37 110 41 107 3 -3 21 -53 41 -112z m889 5
l36 -112 111 -5 112 -5 -85 -64 c-47 -35 -87 -67 -89 -71 -2 -4 11 -58 30
-120 19 -63 33 -115 32 -116 -1 -1 -44 31 -94 72 l-93 74 -91 -71 c-50 -39
-93 -69 -95 -66 -4 3 43 161 63 214 3 7 -37 43 -88 80 l-93 68 114 5 114 5 36
112 c19 62 37 113 40 113 3 0 21 -51 40 -113z"/>
<path d="M5507 7448 c-30 -57 -127 -246 -216 -420 l-161 -318 50 0 50 0 70
140 70 140 198 0 198 0 69 -140 69 -140 49 0 48 0 -212 420 c-116 231 -215
420 -220 420 -4 0 -32 -46 -62 -102z m213 -375 c0 -1 -67 -3 -150 -3 -82 0
-150 4 -150 9 0 4 34 75 77 156 l76 148 74 -153 c40 -84 73 -155 73 -157z"/>
<path d="M6697 7490 c-160 -57 -250 -170 -250 -315 0 -127 74 -235 199 -286
50 -21 54 -25 54 -56 l0 -33 -110 0 -110 0 0 -40 0 -40 125 0 125 0 0 118 -1
117 -50 24 c-180 84 -196 272 -33 379 60 40 112 55 189 55 122 -1 214 -48 264
-135 72 -125 14 -261 -131 -309 l-38 -12 0 -119 0 -118 130 0 130 0 0 40 0 40
-110 0 -110 0 0 34 c0 30 4 35 44 50 61 23 141 89 171 139 50 86 53 190 8 285
-26 56 -110 131 -183 166 -87 41 -223 48 -313 16z"/>
<path d="M9303 1133 c-13 -32 -27 -61 -30 -65 -2 -5 13 -8 35 -8 35 0 44 6 96
65 l57 65 -66 0 -66 0 -26 -57z"/>
<path d="M11150 1150 c-11 -23 -25 -52 -30 -65 -9 -24 -8 -25 28 -25 33 0 43
7 95 65 l58 65 -65 0 -66 0 -20 -40z"/>
<path d="M3851 1026 c-121 -40 -165 -181 -82 -269 35 -39 80 -60 183 -87 91
-24 128 -47 128 -81 0 -72 -97 -111 -186 -74 -26 11 -40 26 -55 61 -20 43 -23
46 -51 40 -17 -3 -44 -6 -60 -6 -28 0 -29 -2 -23 -32 27 -125 107 -181 255
-181 130 0 202 39 236 129 30 78 -1 173 -68 214 -31 19 -53 27 -195 67 -61 17
-83 35 -83 68 0 36 36 55 102 55 62 0 90 -16 108 -64 8 -21 13 -22 67 -18 32
2 60 6 62 8 2 2 -1 21 -7 43 -27 88 -93 131 -211 137 -49 3 -92 -1 -120 -10z"/>
<path d="M9703 1022 c-78 -28 -118 -64 -155 -139 -31 -63 -33 -74 -33 -168 1
-82 5 -109 23 -151 49 -110 145 -168 277 -167 167 0 268 88 294 254 19 117 -8
225 -73 297 -72 79 -223 113 -333 74z m174 -103 c40 -15 81 -57 95 -98 20 -60
15 -171 -11 -224 -69 -143 -267 -119 -310 38 -23 83 -7 189 36 237 47 54 123
73 190 47z"/>
<path d="M11544 1022 c-70 -25 -99 -45 -134 -94 -45 -62 -63 -135 -58 -237 5
-100 28 -160 80 -213 120 -119 357 -109 455 20 91 119 84 345 -13 452 -70 77
-223 111 -330 72z m205 -122 c47 -33 71 -90 71 -175 0 -90 -12 -131 -52 -172
-65 -67 -160 -69 -227 -5 -48 46 -65 102 -59 198 6 85 32 135 86 164 51 28
136 23 181 -10z"/>
<path d="M450 803 c0 -126 5 -245 10 -265 14 -49 53 -94 104 -120 61 -32 203
-31 268 1 97 46 108 87 108 384 l0 227 -59 0 -59 0 -4 -227 c-3 -155 -8 -235
-16 -250 -27 -49 -105 -67 -166 -38 -58 28 -61 38 -64 288 l-4 227 -59 0 -59
0 0 -227z"/>
<path d="M1080 720 l0 -310 55 0 55 0 0 197 c0 139 3 194 11 186 5 -5 61 -93
124 -194 l113 -184 66 -3 66 -3 0 311 0 310 -60 0 -60 0 -2 -202 -3 -202 -124
202 -124 202 -58 0 -59 0 0 -310z"/>
<path d="M1700 720 l0 -310 65 0 65 0 0 310 0 310 -65 0 -65 0 0 -310z"/>
<path d="M1910 951 c16 -44 66 -183 111 -311 l82 -231 71 3 71 3 107 300 c59
165 108 304 108 308 0 4 -30 7 -66 5 l-66 -3 -67 -207 c-88 -266 -81 -250 -96
-213 -6 17 -42 119 -80 228 l-67 197 -69 0 -68 0 29 -79z"/>
<path d="M2530 720 l0 -310 235 0 235 0 0 50 0 50 -175 0 -175 0 0 85 0 85
155 0 155 0 0 50 0 50 -155 0 -155 0 0 70 0 70 170 0 170 0 0 55 0 55 -230 0
-230 0 0 -310z"/>
<path d="M3110 721 l0 -311 60 0 60 0 0 131 0 132 31 -7 c17 -3 39 -6 49 -6
25 0 60 -39 134 -151 l66 -99 76 0 c74 0 75 0 63 23 -37 68 -120 186 -150 212
l-35 30 50 25 c58 29 84 60 96 116 18 79 -16 154 -86 189 -34 17 -64 20 -226
23 l-188 4 0 -311z m351 180 c30 -24 32 -83 3 -112 -17 -17 -38 -21 -127 -26
l-107 -6 0 81 0 82 104 0 c87 0 108 -3 127 -19z"/>
<path d="M4310 720 l0 -310 65 0 65 0 0 310 0 310 -65 0 -65 0 0 -310z"/>
<path d="M4560 721 l0 -311 163 0 c149 0 166 2 212 24 61 28 76 45 112 121 24
52 27 72 27 155 0 151 -44 243 -137 292 -37 19 -62 22 -209 26 l-168 4 0 -311z
m317 179 c53 -32 67 -71 67 -185 0 -106 -10 -140 -54 -180 -18 -16 -39 -21
-116 -23 l-94 -4 0 206 0 206 83 0 c64 0 89 -4 114 -20z"/>
<path d="M5243 720 l-120 -310 67 0 68 0 23 68 24 67 125 0 125 0 26 -65 26
-65 68 -3 c61 -3 67 -1 61 15 -4 10 -59 150 -123 311 l-117 292 -66 0 -66 0
-121 -310z m230 47 c20 -56 37 -105 37 -109 0 -5 -36 -8 -80 -8 -44 0 -80 3
-80 8 -1 13 74 212 80 212 3 0 22 -46 43 -103z"/>
<path d="M5810 720 l0 -311 178 3 179 3 49 30 c36 23 56 45 77 87 68 132 45
351 -45 435 -50 47 -93 57 -270 61 l-168 4 0 -312z m326 181 c49 -30 67 -80
67 -187 0 -160 -41 -204 -185 -204 l-78 0 0 205 0 205 83 0 c63 0 89 -4 113
-19z"/>
<path d="M6680 721 l0 -311 168 0 c155 0 171 2 218 24 76 35 118 103 134 213
17 123 -18 261 -82 320 -50 47 -93 57 -270 61 l-168 4 0 -311z m326 180 c49
-30 67 -81 68 -186 0 -159 -42 -205 -186 -205 l-78 0 0 205 0 205 83 0 c63 0
89 -4 113 -19z"/>
<path d="M7310 720 l0 -310 240 0 240 0 0 50 0 50 -175 0 -175 0 0 85 0 85
155 0 155 0 0 50 0 50 -155 0 -155 0 0 70 0 70 165 0 165 0 0 55 0 55 -230 0
-230 0 0 -310z"/>
<path d="M8670 720 l0 -310 190 0 c138 0 200 4 223 14 67 28 116 119 103 190
-8 40 -56 101 -87 111 -18 6 -17 9 15 45 59 66 57 147 -5 209 -40 40 -100 51
-284 51 l-155 0 0 -310z m342 183 c23 -28 28 -51 17 -77 -17 -36 -50 -46 -149
-46 l-90 0 0 70 0 70 103 0 c87 0 106 -3 119 -17z m11 -246 c50 -32 48 -106
-3 -132 -20 -10 -59 -15 -130 -15 l-100 0 0 78 c0 43 3 82 8 86 4 5 50 6 103
4 69 -3 103 -8 122 -21z"/>
<path d="M9290 720 l0 -310 65 0 65 0 0 310 0 310 -65 0 -65 0 0 -310z"/>
<path d="M10500 721 l0 -311 195 0 c143 0 204 4 228 14 68 28 115 118 101 192
-7 40 -54 99 -86 110 -19 6 -18 8 11 38 78 80 56 191 -49 247 -17 9 -82 15
-212 17 l-188 4 0 -311z m352 182 c28 -25 24 -77 -8 -102 -23 -18 -41 -21
-120 -21 l-94 0 0 70 0 70 102 0 c80 0 105 -3 120 -17z m-28 -233 c48 -11 64
-26 72 -67 5 -27 1 -37 -24 -63 -30 -30 -32 -30 -136 -30 l-106 0 0 85 0 85
78 0 c42 0 95 -5 116 -10z"/>
<path d="M11130 720 l0 -310 65 0 65 0 0 310 0 310 -65 0 -65 0 0 -310z"/>
<path d="M7900 715 l0 -305 220 0 220 0 0 50 0 50 -160 0 -160 0 0 255 0 255
-60 0 -60 0 0 -305z"/>
<path d="M10200 630 l0 -60 115 0 115 0 0 60 0 60 -115 0 -115 0 0 -60z"/>
</g>
</svg>
