<?xml version="1.0" standalone="no"?>
<!DOCTYPE svg PUBLIC "-//W3C//DTD SVG 20010904//EN"
 "http://www.w3.org/TR/2001/REC-SVG-20010904/DTD/svg10.dtd">
<svg version="1.0" xmlns="http://www.w3.org/2000/svg"
 width="3307.000000pt" height="650.000000pt" viewBox="0 0 3307.000000 650.000000"
 preserveAspectRatio="xMidYMid meet">

<g transform="translate(0.000000,650.000000) scale(0.100000,-0.100000)"
fill="#000000" stroke="none">
<path d="M240 3250 l0 -3010 16295 0 16295 0 0 3010 0 3010 -16295 0 -16295 0
0 -3010z m32478 2 l2 -2892 -16185 0 -16185 0 0 2888 c0 1589 3 2892 7 2895 3
4 7285 6 16182 5 l16176 -3 3 -2893z"/>
<path d="M5260 3250 l0 -2550 55 0 55 0 0 2550 0 2550 -55 0 -55 0 0 -2550z"/>
<path d="M19440 3250 l0 -2550 60 0 60 0 0 2550 0 2550 -60 0 -60 0 0 -2550z"/>
<path d="M2146 5763 c-7 -16 -235 -543 -505 -1172 -388 -901 -489 -1146 -480
-1157 9 -11 63 -14 284 -14 253 0 274 1 296 19 17 14 134 275 394 880 204 473
375 861 380 861 6 -1 138 -288 294 -640 157 -352 287 -640 289 -640 3 0 104
79 226 177 121 97 223 177 224 179 5 3 -667 1505 -680 1522 -8 9 -92 12 -359
12 l-348 0 -15 -27z"/>
<path d="M9890 5471 c-111 -34 -160 -105 -160 -233 1 -104 20 -138 155 -278
110 -113 116 -121 113 -156 -2 -27 -11 -43 -31 -58 -26 -19 -30 -19 -55 -6
-15 9 -33 32 -41 55 -8 22 -15 41 -16 43 -2 1 -37 -13 -78 -32 l-76 -35 14
-47 c7 -26 26 -60 42 -76 49 -52 79 -62 183 -63 79 0 102 4 135 22 82 44 115
104 115 210 0 102 -26 148 -164 291 -64 66 -116 129 -116 139 0 30 29 63 55
63 22 0 58 -34 68 -63 2 -8 13 -8 43 0 21 6 58 17 82 23 36 9 42 14 42 38 -1
64 -70 140 -149 162 -41 11 -124 12 -161 1z"/>
<path d="M13619 5466 c-62 -22 -97 -54 -128 -119 -43 -89 -54 -170 -49 -365 4
-134 9 -180 27 -233 39 -123 137 -180 279 -164 121 14 178 65 206 183 14 62
14 63 -7 72 -12 4 -47 20 -78 33 l-56 26 -6 -49 c-11 -94 -53 -135 -111 -109
-49 23 -61 81 -61 294 0 174 2 194 22 237 22 47 54 67 87 55 22 -9 46 -50 54
-94 l7 -40 74 21 c41 12 76 27 78 33 9 27 -29 125 -64 163 -56 63 -183 89
-274 56z"/>
<path d="M6107 5348 c2 -68 4 -222 6 -343 3 -205 5 -224 26 -273 43 -97 129
-147 256 -147 94 0 153 22 205 74 71 72 72 81 79 469 l6 342 -102 0 -103 0 7
-297 c6 -315 1 -365 -38 -404 -20 -20 -69 -25 -98 -9 -42 22 -46 59 -45 393
l1 317 -101 0 -101 0 2 -122z"/>
<path d="M6805 5035 l0 -435 87 0 88 0 -7 235 c-4 139 -2 235 3 235 5 0 58
-106 119 -235 l110 -235 75 0 75 0 0 435 0 435 -85 0 -85 0 2 -237 3 -238 -43
85 c-23 47 -75 154 -115 238 l-73 152 -77 0 -77 0 0 -435z"/>
<path d="M7485 5035 l0 -435 100 0 100 0 0 435 0 435 -100 0 -100 0 0 -435z"/>
<path d="M7760 5459 c0 -6 9 -46 20 -90 11 -44 52 -225 90 -402 39 -177 72
-332 75 -344 5 -22 9 -23 133 -23 l128 0 92 428 c51 235 93 430 92 435 0 4
-43 7 -95 7 -90 0 -95 -1 -100 -22 -2 -13 -23 -131 -45 -263 -62 -364 -62
-365 -70 -365 -8 0 -8 1 -70 365 -22 132 -43 250 -45 263 -5 21 -10 22 -105
22 -65 0 -100 -4 -100 -11z"/>
<path d="M8465 5035 l0 -435 233 0 232 0 0 80 0 80 -130 0 -130 0 0 105 0 106
115 -7 115 -7 0 84 0 84 -115 -3 -115 -4 0 97 0 97 125 -7 125 -7 0 86 0 86
-227 0 -228 0 0 -435z"/>
<path d="M9055 5035 l0 -435 102 0 102 0 -6 158 c-4 120 -3 161 6 167 23 14
100 -5 116 -28 8 -13 25 -84 37 -160 l22 -137 103 0 c102 0 103 0 98 23 -3 12
-19 87 -35 165 -31 145 -49 197 -72 205 -8 2 2 20 29 50 51 55 58 78 58 182
-1 65 -5 90 -25 130 -48 96 -108 115 -363 115 l-172 0 0 -435z m322 260 c48
-34 50 -159 3 -197 -23 -18 -102 -34 -119 -23 -7 4 -11 50 -11 121 l0 114 53
0 c31 0 61 -6 74 -15z"/>
<path d="M10305 5035 l0 -435 100 0 100 0 0 435 0 435 -100 0 -100 0 0 -435z"/>
<path d="M10635 5036 l0 -436 176 0 c104 0 190 5 210 11 49 17 106 75 124 128
25 74 38 217 32 356 -10 214 -44 302 -134 346 -44 22 -63 24 -228 27 l-180 4
0 -436z m302 279 c40 -28 48 -76 48 -290 0 -172 -2 -205 -18 -236 -21 -42 -52
-59 -107 -59 l-40 0 0 300 0 300 48 0 c26 0 57 -7 69 -15z"/>
<path d="M11380 5463 c0 -48 -112 -622 -150 -775 -11 -42 -20 -79 -20 -82 0
-3 42 -6 94 -6 l93 0 13 78 c22 128 16 122 115 122 99 0 93 6 115 -122 l13
-78 100 0 c98 0 99 0 93 23 -43 162 -166 769 -166 822 l0 25 -150 0 c-82 0
-150 -3 -150 -7z m160 -228 c0 -11 41 -240 46 -257 5 -16 -2 -18 -59 -18 l-64
0 24 128 c13 70 26 133 28 140 4 12 25 18 25 7z"/>
<path d="M11925 5035 l0 -435 178 0 c189 0 226 7 275 53 64 60 86 157 85 382
0 243 -26 338 -107 393 -48 32 -108 41 -276 42 l-155 0 0 -435z m295 285 c10
-5 27 -31 37 -57 15 -40 18 -77 18 -233 0 -202 -8 -245 -52 -280 -17 -13 -41
-20 -69 -20 l-44 0 0 300 0 300 46 0 c25 0 54 -4 64 -10z"/>
<path d="M12925 5413 c-15 -129 -138 -738 -160 -795 -7 -16 2 -18 88 -18 l96
0 7 38 c3 20 12 64 18 97 l12 60 91 3 91 3 11 -53 c5 -29 14 -73 18 -98 l9
-45 100 -3 101 -3 -24 88 c-24 91 -122 570 -143 706 l-13 77 -147 0 -148 0 -7
-57z m170 -195 c5 -23 45 -249 45 -255 0 -2 -27 -3 -60 -3 -44 0 -60 4 -60 14
0 11 29 165 46 244 2 12 9 22 14 22 5 0 12 -10 15 -22z"/>
<path d="M14055 5035 l0 -435 103 0 103 0 -3 163 -3 162 49 -2 c74 -2 81 -15
108 -178 l24 -140 103 -3 103 -3 -7 28 c-3 15 -20 93 -36 172 -22 109 -35 152
-54 177 l-25 33 23 16 c13 8 34 34 48 57 21 37 24 56 24 138 0 83 -3 101 -25
140 -51 91 -113 110 -363 110 l-172 0 0 -435z m328 255 c31 -25 43 -82 27
-139 -13 -51 -44 -72 -107 -74 l-48 -2 -3 118 -3 117 54 0 c39 0 61 -6 80 -20z"/>
<path d="M14735 5449 c9 -28 9 -799 1 -827 l-7 -22 235 0 236 0 0 80 0 80
-130 0 -131 0 3 103 3 102 113 -4 112 -3 0 83 0 84 -115 -3 -116 -4 3 94 3 93
123 -3 122 -3 0 86 0 85 -231 0 -230 0 6 -21z"/>
<path d="M15325 5035 l0 -436 196 3 c193 3 196 3 236 30 87 57 120 193 110
457 -8 222 -36 300 -127 351 -43 23 -55 25 -230 28 l-185 4 0 -437z m296 285
c10 -6 27 -25 36 -43 16 -28 18 -60 18 -242 0 -231 -6 -265 -56 -290 -15 -8
-46 -15 -69 -15 l-40 0 0 300 0 300 46 0 c25 0 54 -5 65 -10z"/>
<path d="M15965 5035 l0 -435 100 0 100 0 0 435 0 435 -100 0 -100 0 0 -435z"/>
<path d="M16240 5388 l0 -83 101 3 101 4 -4 -356 -3 -356 100 0 100 0 -3 356
-2 356 95 -4 95 -3 0 83 0 82 -290 0 -290 0 0 -82z"/>
<path d="M16950 5398 c-34 -210 -116 -615 -155 -770 l-7 -28 95 0 94 0 13 77
c21 130 15 124 117 121 l88 -3 19 -97 18 -98 99 0 c55 0 99 2 99 4 0 2 -13 56
-30 121 -28 114 -106 500 -133 660 l-13 80 -146 3 -146 3 -12 -73z m180 -230
c7 -40 18 -103 25 -140 l13 -68 -63 0 -63 0 14 73 c8 39 20 102 26 140 7 39
17 67 24 67 7 0 17 -29 24 -72z"/>
<path d="M17505 5035 l0 -435 178 0 c138 0 186 3 215 16 92 38 128 113 142
298 9 116 1 302 -16 372 -22 90 -84 156 -164 173 -28 6 -119 11 -203 11 l-152
0 0 -435z m302 275 c40 -37 48 -83 47 -285 0 -152 -3 -197 -16 -227 -22 -49
-56 -70 -110 -66 l-43 3 -3 298 -2 297 53 0 c39 0 59 -5 74 -20z"/>
<path d="M18246 5448 c-2 -13 -21 -116 -41 -231 -20 -114 -56 -296 -81 -405
-24 -108 -44 -201 -44 -205 0 -4 41 -6 92 -5 l92 3 9 45 c4 25 13 69 18 98
l11 53 91 -3 91 -3 9 -45 c4 -25 13 -69 18 -97 l10 -53 100 0 c91 0 100 2 95
18 -28 91 -176 802 -176 847 0 3 -65 5 -145 5 -142 0 -145 0 -149 -22z m182
-335 c12 -71 22 -134 22 -140 0 -9 -19 -13 -61 -13 -53 0 -60 2 -55 18 2 9 14
72 27 140 13 75 26 122 34 122 7 0 20 -48 33 -127z"/>
<path d="M22363 5436 c-61 -28 -94 -117 -73 -195 8 -31 34 -66 95 -131 85 -89
100 -121 73 -148 -24 -24 -58 -14 -73 22 l-15 34 -50 -21 c-55 -23 -60 -36
-30 -84 31 -51 62 -66 140 -67 78 0 107 14 148 74 26 39 29 103 7 156 -8 19
-50 72 -95 119 -79 83 -93 111 -65 135 14 11 55 6 55 -8 0 -4 4 -13 9 -20 7
-11 18 -11 64 3 l55 16 -9 32 c-5 17 -22 45 -39 61 -26 27 -38 31 -97 33 -44
2 -79 -2 -100 -11z"/>
<path d="M22985 5439 c-82 -47 -108 -118 -108 -289 0 -144 18 -211 68 -260 34
-33 41 -35 113 -38 67 -3 81 -1 112 20 20 13 46 44 60 73 23 47 25 60 25 205
0 145 -2 158 -25 204 -36 72 -66 90 -153 94 -42 1 -80 -2 -92 -9z m127 -139
c14 -27 18 -61 18 -150 0 -89 -4 -123 -18 -150 -19 -39 -51 -50 -75 -26 -33
34 -48 192 -26 286 19 85 69 105 101 40z"/>
<path d="M24252 5430 c-49 -30 -72 -75 -72 -141 0 -67 19 -100 115 -199 69
-72 76 -85 64 -118 -7 -18 -15 -23 -36 -20 -24 3 -35 14 -60 66 0 2 -24 -8
-52 -22 -47 -24 -50 -28 -41 -52 29 -74 65 -97 155 -97 108 0 165 51 165 151
0 75 -17 108 -109 205 -44 48 -81 90 -81 95 0 19 28 44 45 41 15 -3 25 -15 42
-47 1 -2 27 3 57 12 40 12 56 21 56 34 0 31 -40 83 -75 98 -50 21 -133 18
-173 -6z"/>
<path d="M20211 5146 l0 -296 94 0 c234 0 270 40 270 300 0 160 -13 216 -61
261 -24 23 -34 24 -164 27 l-139 3 0 -295z m215 183 c16 -18 19 -40 22 -152 5
-196 -5 -227 -79 -227 l-39 0 0 200 0 200 38 0 c27 0 45 -7 58 -21z"/>
<path d="M20645 5145 l0 -295 68 0 67 0 0 295 0 295 -67 0 -68 0 0 -295z"/>
<path d="M20870 5145 l0 -295 53 0 52 0 -3 187 c-2 103 0 184 4 180 4 -3 23
-86 44 -184 l36 -178 45 -3 44 -3 39 183 c21 101 43 188 49 193 6 7 7 -57 3
-182 l-7 -193 56 0 55 0 0 295 0 295 -79 0 c-67 0 -80 -3 -85 -17 -3 -10 -19
-90 -36 -177 -16 -88 -32 -161 -34 -163 -7 -7 -13 22 -42 195 l-28 162 -83 0
-83 0 0 -295z"/>
<path d="M21435 5145 l0 -295 158 0 157 0 0 58 0 58 -90 -4 -90 -4 0 77 0 77
80 -7 80 -7 0 56 0 56 -80 0 -80 0 0 66 0 67 85 -7 85 -6 0 55 0 55 -152 0
-153 0 0 -295z"/>
<path d="M21835 5145 l0 -295 56 0 55 0 -4 168 c-3 111 -1 164 6 157 5 -5 43
-81 83 -167 l73 -158 48 0 48 0 0 295 0 295 -55 0 -55 0 -1 -157 0 -158 -76
158 -76 157 -51 0 -51 0 0 -295z"/>
<path d="M22675 5145 l0 -295 68 0 67 0 0 295 0 295 -67 0 -68 0 0 -295z"/>
<path d="M23325 5145 l0 -295 58 0 57 0 0 168 0 167 78 -165 78 -165 50 -3 49
-3 0 296 0 295 -57 0 -57 0 6 -155 c3 -85 3 -155 -1 -155 -4 0 -40 70 -81 155
l-74 155 -53 0 -53 0 0 -295z"/>
<path d="M23785 5145 l0 -295 158 0 157 0 0 58 0 58 -87 -1 -88 0 0 70 0 70
78 -3 77 -3 0 55 0 56 -80 0 -81 0 3 63 3 62 83 -2 82 -1 0 54 0 54 -152 0
-153 0 0 -295z"/>
<path d="M24567 5262 c-21 -23 -22 -76 -1 -96 8 -9 31 -16 49 -16 58 0 86 69
45 110 -25 25 -72 26 -93 2z"/>
<path d="M24561 4976 c-7 -8 -11 -32 -9 -52 2 -29 9 -42 30 -53 59 -33 120 28
87 87 -11 21 -23 28 -55 30 -27 2 -45 -2 -53 -12z"/>
<path d="M4055 4614 c-259 -184 -476 -341 -483 -348 -11 -11 19 -87 170 -427
166 -375 186 -414 207 -414 21 0 55 69 357 709 197 419 334 721 334 738 0 40
-40 78 -82 78 -28 0 -112 -56 -503 -336z"/>
<path d="M31535 4574 c-66 -59 -49 -74 28 -25 54 35 57 38 40 53 -17 15 -22
13 -68 -28z"/>
<path d="M21983 4603 c-19 -7 -16 -60 3 -67 22 -9 54 11 54 34 0 16 -29 42
-42 39 -2 0 -9 -3 -15 -6z"/>
<path d="M24170 4365 c5 -261 6 -265 55 -265 30 0 47 15 43 36 -2 12 -11 18
-22 16 -11 -2 -23 2 -27 10 -5 7 -9 111 -9 231 l0 217 -22 0 -23 0 5 -245z"/>
<path d="M25020 4530 c0 -73 -9 -97 -25 -70 -12 20 -80 11 -102 -12 -57 -62
-57 -266 -1 -325 26 -28 83 -31 110 -6 17 15 18 15 18 0 0 -10 8 -17 20 -17
19 0 20 7 20 218 0 119 3 234 6 255 6 35 5 37 -20 37 -26 0 -26 0 -26 -80z
m-18 -117 c15 -14 18 -32 18 -122 0 -80 -4 -112 -16 -129 -16 -24 -44 -28 -74
-12 -41 22 -52 201 -15 256 18 28 60 32 87 7z"/>
<path d="M26006 4530 c4 -55 3 -80 -4 -80 -6 0 -14 5 -17 10 -3 6 -24 10 -46
10 -79 0 -106 -62 -97 -226 5 -104 25 -137 82 -142 22 -2 47 3 62 13 21 14 24
14 24 0 0 -8 9 -15 20 -15 19 0 20 7 20 255 l0 255 -26 0 -25 0 7 -80z m-9
-130 c7 -14 13 -63 13 -113 0 -110 -16 -146 -66 -147 -38 0 -57 34 -62 114 -8
130 12 180 72 174 21 -2 35 -11 43 -28z"/>
<path d="M26430 4375 c0 -222 1 -236 20 -255 34 -34 98 -21 86 17 -4 12 -15
19 -29 19 l-22 -1 -3 228 -2 227 -25 0 -25 0 0 -235z"/>
<path d="M28970 4529 c0 -69 -2 -80 -14 -70 -8 7 -34 11 -57 9 -31 -2 -47 -9
-61 -29 -41 -55 -41 -253 0 -308 23 -32 82 -40 118 -16 21 14 24 14 24 0 0 -8
9 -15 20 -15 19 0 20 7 20 255 l0 255 -25 0 c-25 0 -25 -1 -25 -81z m-23 -107
c21 -13 33 -62 33 -136 0 -93 -14 -134 -48 -143 -56 -14 -82 32 -82 145 0 79
10 118 34 134 14 10 48 10 63 0z"/>
<path d="M31313 4603 c-22 -8 -16 -61 7 -68 43 -14 69 44 31 65 -11 5 -21 10
-23 9 -2 0 -9 -3 -15 -6z"/>
<path d="M20220 4349 l0 -252 84 5 c148 8 170 40 171 248 0 115 -3 141 -20
175 -27 55 -71 75 -162 75 l-73 0 0 -251z m155 197 c47 -20 58 -61 53 -218 -3
-121 -4 -129 -28 -153 -20 -20 -37 -26 -80 -28 l-55 -2 -3 195 c-1 107 0 200
2 207 7 17 68 16 111 -1z"/>
<path d="M22975 4350 l0 -250 22 0 c21 0 22 4 25 103 l3 102 42 3 c55 4 93
-29 93 -81 0 -19 3 -55 6 -81 6 -42 9 -46 35 -46 26 0 28 3 24 28 -3 15 -9 56
-15 91 -6 42 -17 72 -31 88 -13 13 -17 23 -10 23 19 0 51 81 51 133 0 100 -47
137 -172 137 l-73 0 0 -250z m169 184 c22 -21 30 -57 23 -105 -8 -61 -30 -79
-94 -79 l-53 0 0 100 0 100 54 0 c36 0 60 -5 70 -16z"/>
<path d="M26760 4350 l0 -250 25 0 c25 0 25 1 25 85 l0 85 45 0 c108 0 149 47
149 172 1 123 -36 158 -166 158 l-78 0 0 -250z m171 181 c21 -17 24 -27 24
-96 0 -69 -3 -79 -24 -96 -16 -13 -39 -19 -72 -19 l-49 0 0 115 0 115 49 0
c33 0 56 -6 72 -19z"/>
<path d="M29550 4350 l0 -250 25 0 25 0 0 115 0 115 60 0 c56 0 60 2 60 23 0
21 -3 22 -60 19 l-60 -4 0 91 0 91 80 0 c79 0 80 0 80 25 l0 25 -105 0 -105 0
0 -250z"/>
<path d="M24357 4523 c-4 -3 -7 -15 -7 -25 0 -10 -9 -23 -20 -30 -11 -7 -20
-20 -20 -29 0 -9 9 -19 20 -22 19 -5 20 -14 20 -141 0 -123 2 -138 20 -156 13
-13 33 -20 59 -20 52 0 71 8 71 31 0 17 -5 18 -38 13 -27 -4 -41 -2 -50 9 -7
8 -15 65 -19 141 l-6 126 56 0 c50 0 57 2 57 19 0 17 -8 20 -52 23 -52 3 -53
4 -56 36 -3 30 -19 41 -35 25z"/>
<path d="M27173 4460 c-18 -11 -33 -24 -33 -30 0 -5 -4 -10 -10 -10 -5 0 -10
11 -10 25 0 18 -5 25 -20 25 -19 0 -20 -7 -20 -185 l0 -185 25 0 25 0 0 136
c0 74 4 144 10 154 11 20 74 45 90 35 11 -7 13 15 4 39 -8 21 -22 20 -61 -4z"/>
<path d="M30154 4461 c-18 -11 -34 -25 -37 -33 -3 -7 -6 -1 -6 15 -1 22 -6 27
-26 27 l-25 0 0 -185 0 -185 25 0 25 0 0 140 c0 158 6 173 74 186 37 6 40 11
30 38 -8 21 -22 20 -60 -3z"/>
<path d="M20581 4444 c-27 -35 -34 -74 -29 -188 2 -77 7 -100 24 -123 19 -25
27 -28 79 -28 52 0 60 3 79 28 19 25 21 42 21 152 0 110 -2 127 -21 152 -18
24 -29 28 -76 31 -50 3 -58 0 -77 -24z m126 -55 c15 -43 16 -152 2 -202 -18
-66 -84 -69 -106 -6 -15 43 -16 152 -2 202 18 66 84 69 106 6z"/>
<path d="M20861 4444 c-27 -35 -34 -75 -29 -188 4 -123 21 -150 96 -154 40 -2
55 1 71 17 31 31 38 71 15 88 -17 13 -20 11 -25 -17 -10 -45 -23 -54 -72 -51
-28 2 -47 61 -47 144 0 120 28 169 85 147 17 -6 27 -20 32 -40 8 -44 39 -37
36 9 -2 51 -27 71 -89 71 -45 0 -56 -4 -73 -26z"/>
<path d="M21138 4453 c-37 -41 -53 -143 -39 -242 13 -84 37 -111 102 -111 53
0 85 20 94 61 9 36 -28 48 -43 13 -15 -31 -42 -44 -70 -33 -28 10 -42 46 -42
105 l0 44 86 0 87 0 -6 62 c-8 87 -29 112 -99 116 -42 2 -58 -1 -70 -15z m105
-33 c11 -10 27 -82 21 -92 -3 -4 -32 -8 -65 -8 -57 0 -59 1 -59 25 0 31 24 81
42 88 15 6 49 -1 61 -13z"/>
<path d="M21390 4285 l0 -185 25 0 25 0 0 145 c0 142 1 147 25 170 28 29 42
31 73 9 21 -15 22 -21 22 -170 l0 -154 26 0 26 0 -4 164 c-3 144 -5 166 -22
185 -24 27 -100 29 -128 4 -17 -15 -18 -15 -18 0 0 11 -8 17 -25 17 l-25 0 0
-185z"/>
<path d="M21721 4444 c-26 -33 -35 -94 -29 -200 6 -111 24 -138 95 -142 62 -4
94 18 96 67 3 46 -19 50 -36 8 -24 -55 -89 -55 -104 0 -10 36 -10 180 0 216
16 58 92 55 104 -4 6 -30 11 -33 36 -23 12 4 13 12 6 36 -15 53 -36 68 -95 68
-45 0 -56 -4 -73 -26z"/>
<path d="M21975 4285 l0 -185 25 0 25 0 0 185 0 185 -25 0 -25 0 0 -185z"/>
<path d="M22143 4455 c-22 -15 -46 -69 -36 -79 13 -13 34 -5 44 18 24 52 102
53 115 2 10 -43 -5 -65 -67 -97 -83 -41 -99 -60 -99 -112 0 -33 6 -49 23 -65
32 -30 93 -30 124 0 l23 22 16 -23 c11 -15 24 -21 42 -19 35 4 39 25 8 39
l-26 12 0 134 c0 129 -1 135 -25 158 -19 20 -34 25 -72 25 -27 0 -58 -7 -70
-15z m124 -217 c-10 -81 -69 -125 -111 -82 -33 33 -14 74 52 109 26 13 51 24
56 25 5 0 6 -23 3 -52z"/>
<path d="M22545 4413 c8 -32 26 -115 41 -185 20 -92 32 -128 42 -128 9 0 12
-6 8 -16 -3 -9 -6 -22 -6 -30 0 -26 -38 -55 -65 -48 -23 6 -24 4 -17 -17 12
-33 53 -36 85 -7 22 20 32 51 71 233 25 116 48 220 52 233 5 18 2 22 -18 22
-24 0 -26 -5 -53 -147 -15 -82 -31 -152 -35 -156 -4 -5 -20 56 -35 135 -34
173 -32 168 -60 168 -23 0 -23 0 -10 -57z"/>
<path d="M23338 4453 c-37 -41 -53 -143 -39 -242 13 -82 38 -111 97 -111 56 0
72 7 89 41 20 37 19 46 -4 52 -13 3 -22 -3 -29 -19 -15 -31 -42 -44 -70 -33
-28 10 -42 46 -42 105 l0 44 86 0 87 0 -6 62 c-8 87 -29 112 -99 116 -42 2
-58 -1 -70 -15z m105 -33 c11 -10 27 -82 21 -92 -3 -4 -32 -8 -65 -8 -57 0
-59 1 -59 25 0 31 24 81 42 88 15 6 49 -1 61 -13z"/>
<path d="M23603 4448 c-27 -30 -36 -62 -28 -99 5 -24 22 -41 75 -75 75 -48 90
-72 66 -108 -28 -43 -90 -38 -101 7 -5 18 -12 23 -26 20 -26 -7 -24 -39 6 -68
19 -20 34 -25 75 -25 68 0 100 30 100 93 0 49 -15 67 -97 121 -38 25 -49 37
-51 63 -2 25 2 35 21 48 30 19 72 7 82 -25 8 -24 38 -23 43 1 1 8 -7 27 -18
42 -18 23 -29 27 -74 27 -42 0 -57 -5 -73 -22z"/>
<path d="M23850 4311 c0 -145 2 -161 21 -185 17 -21 29 -26 66 -26 29 0 53 6
65 17 17 15 18 15 18 0 0 -11 8 -17 23 -17 l22 0 0 185 0 185 -22 0 c-23 0
-23 -2 -23 -136 0 -164 -11 -193 -70 -194 -46 0 -50 13 -50 177 l0 153 -25 0
-25 0 0 -159z"/>
<path d="M24576 4439 c-14 -17 -26 -39 -26 -50 0 -28 35 -24 48 6 28 62 112
48 112 -19 0 -38 -15 -54 -86 -89 -27 -14 -57 -33 -65 -43 -21 -25 -18 -97 5
-123 25 -28 94 -29 128 -1 25 19 25 19 44 -1 10 -11 27 -19 38 -17 27 4 33 34
7 41 -17 4 -19 16 -22 140 -4 127 -5 137 -28 161 -20 22 -33 26 -77 26 -46 0
-55 -4 -78 -31z m119 -265 c-18 -27 -61 -41 -84 -27 -20 13 -26 60 -10 79 7 9
33 26 58 39 l46 23 3 -45 c2 -28 -3 -53 -13 -69z"/>
<path d="M25182 4445 c-27 -34 -36 -94 -30 -201 6 -116 23 -139 103 -139 52 0
60 3 79 28 19 25 21 42 21 152 0 110 -2 127 -21 152 -18 24 -29 28 -76 31 -50
3 -58 0 -76 -23z m125 -56 c15 -43 16 -152 2 -202 -16 -57 -75 -71 -101 -23
-14 24 -17 186 -5 229 16 56 84 54 104 -4z"/>
<path d="M25452 4447 c-16 -17 -22 -36 -22 -69 0 -50 14 -66 109 -130 54 -37
56 -79 5 -106 -25 -13 -64 3 -79 35 -8 16 -15 19 -28 12 -23 -13 -22 -22 9
-58 23 -27 32 -31 78 -31 60 0 89 23 99 75 9 51 -15 89 -82 129 -64 39 -81 68
-62 104 20 38 88 32 98 -9 7 -24 36 -21 41 5 2 10 -6 29 -19 42 -32 34 -116
35 -147 1z"/>
<path d="M26171 4446 c-31 -33 -46 -141 -32 -231 13 -87 37 -115 97 -115 56 0
72 7 89 41 20 37 19 46 -4 52 -13 3 -22 -3 -29 -19 -15 -31 -42 -44 -70 -33
-28 10 -42 46 -42 105 l0 44 85 0 85 0 0 33 c0 44 -19 108 -38 130 -24 28
-112 24 -141 -7z m113 -26 c10 -10 25 -87 18 -95 -3 -3 -32 -5 -65 -5 l-60 0
6 42 c9 65 61 95 101 58z"/>
<path d="M27326 4451 c-35 -39 -48 -185 -25 -277 15 -57 42 -76 105 -72 38 2
51 8 68 31 19 25 21 42 21 152 0 110 -2 127 -21 152 -18 24 -29 28 -76 31 -44
2 -58 -1 -72 -17z m94 -21 c26 -14 40 -63 40 -145 0 -112 -27 -162 -81 -148
-59 16 -64 270 -6 293 29 11 26 11 47 0z"/>
<path d="M27601 4444 c-26 -33 -35 -94 -29 -200 6 -111 24 -138 95 -142 62 -4
94 18 96 67 3 46 -19 50 -36 8 -24 -55 -89 -55 -104 0 -10 36 -10 180 0 216
16 58 92 55 104 -4 4 -20 11 -29 22 -27 24 5 25 50 1 81 -19 23 -29 27 -75 27
-46 0 -57 -4 -74 -26z"/>
<path d="M27876 4447 c-30 -30 -39 -86 -35 -201 5 -114 23 -140 101 -144 50
-3 58 0 77 24 25 32 27 60 5 68 -9 4 -18 5 -18 4 -1 -2 -7 -15 -13 -29 -13
-30 -38 -40 -70 -28 -24 9 -43 61 -43 117 l0 32 86 0 86 0 -4 60 c-6 86 -29
114 -96 118 -44 3 -56 -1 -76 -21z m94 -17 c18 -10 40 -59 40 -91 0 -17 -8
-19 -65 -19 -71 0 -72 1 -54 63 6 24 19 41 32 47 29 11 26 11 47 0z"/>
<path d="M28141 4446 c-29 -31 -31 -98 -5 -128 11 -11 43 -36 72 -54 57 -37
67 -52 58 -87 -12 -51 -86 -51 -111 0 -8 16 -15 19 -28 12 -24 -14 -21 -28 10
-61 23 -24 35 -28 79 -28 45 0 56 4 73 26 14 18 21 41 21 70 0 50 -14 68 -90
115 -53 33 -69 63 -51 97 20 38 88 32 98 -9 7 -24 36 -21 41 5 2 10 -6 29 -19
42 -32 34 -116 35 -148 0z"/>
<path d="M28409 4444 c-23 -24 -24 -32 -24 -154 0 -115 2 -131 21 -157 18 -23
30 -29 72 -31 40 -2 55 1 71 17 57 57 55 296 -2 336 -12 8 -42 15 -67 15 -37
0 -52 -5 -71 -26z m95 -13 c60 -24 58 -278 -3 -294 -54 -14 -81 36 -81 149 0
79 11 122 37 142 20 14 16 14 47 3z"/>
<path d="M29142 4447 c-60 -64 -50 -316 13 -341 9 -3 34 -6 55 -6 52 0 68 8
85 41 19 36 19 47 -2 51 -11 2 -25 -7 -35 -24 -13 -20 -26 -28 -47 -28 -41 0
-61 32 -61 97 l0 53 86 0 87 0 -7 56 c-7 63 -27 109 -51 118 -39 15 -101 6
-123 -17z m103 -32 c17 -16 25 -35 25 -60 l0 -35 -61 0 -62 0 6 42 c4 27 14
49 27 60 29 23 36 23 65 -7z"/>
<path d="M29801 4446 c-29 -31 -42 -127 -31 -226 10 -91 33 -120 97 -120 88 0
108 35 108 185 0 150 -20 185 -108 185 -33 0 -49 -6 -66 -24z m99 -16 c4 0 12
-12 18 -27 46 -119 10 -284 -58 -266 -37 10 -52 64 -48 171 3 85 5 96 27 113
13 11 31 17 38 14 8 -3 18 -5 23 -5z"/>
<path d="M30290 4285 l0 -185 25 0 25 0 0 149 c0 123 3 152 16 165 22 23 63
24 76 3 4 -7 8 -81 8 -164 l0 -153 25 0 25 0 0 145 c0 142 1 147 25 170 29 30
39 31 65 5 18 -18 20 -33 20 -170 0 -149 0 -150 23 -150 l22 0 -3 162 c-4 194
-9 208 -76 208 -27 0 -48 -6 -56 -15 -7 -8 -17 -15 -22 -15 -5 0 -16 7 -24 15
-20 20 -84 19 -112 -1 -20 -14 -22 -14 -22 0 0 9 -9 16 -20 16 -19 0 -20 -7
-20 -185z"/>
<path d="M30746 4439 c-14 -17 -26 -39 -26 -50 0 -28 35 -24 48 6 28 62 112
48 112 -19 0 -38 -15 -54 -86 -89 -66 -33 -79 -51 -79 -104 0 -35 5 -49 24
-64 31 -25 92 -25 122 0 24 19 24 19 46 -1 16 -14 29 -19 47 -14 29 7 26 31
-4 39 -17 4 -19 18 -22 140 -3 127 -4 137 -27 161 -20 22 -34 26 -77 26 -46 0
-55 -4 -78 -31z m119 -265 c-18 -27 -61 -41 -84 -27 -20 13 -26 60 -10 79 7 9
33 26 58 39 l46 23 3 -45 c2 -28 -3 -53 -13 -69z"/>
<path d="M31060 4450 c-28 -28 -35 -62 -35 -175 1 -147 24 -181 120 -173 42 3
73 34 77 78 4 38 -25 37 -43 -1 -20 -46 -54 -55 -85 -24 -22 22 -24 31 -24
125 0 106 7 132 41 150 16 9 26 8 45 -5 13 -8 24 -21 24 -28 0 -22 16 -38 33
-31 21 8 13 49 -16 82 -28 30 -108 31 -137 2z"/>
<path d="M31310 4285 l0 -185 25 0 25 0 0 185 0 185 -25 0 -25 0 0 -185z"/>
<path d="M31492 4463 c-31 -12 -46 -67 -47 -173 0 -155 19 -190 108 -190 33 0
49 6 65 23 29 30 46 124 38 205 -12 113 -33 142 -104 141 -26 0 -53 -3 -60 -6z
m89 -42 c22 -18 24 -28 27 -123 3 -122 -7 -151 -55 -156 -51 -5 -63 23 -63
146 0 96 2 105 25 127 29 30 36 31 66 6z"/>
<path d="M31740 4285 l0 -185 25 0 25 0 0 149 0 150 26 20 c33 26 49 26 74 1
18 -18 20 -33 20 -170 l0 -150 26 0 c22 0 25 3 20 23 -3 12 -6 86 -6 165 0
129 -2 144 -20 162 -25 25 -101 28 -120 5 -7 -8 -16 -15 -21 -15 -5 0 -9 7 -9
15 0 8 -9 15 -20 15 -19 0 -20 -7 -20 -185z"/>
<path d="M7185 4156 c-37 -17 -80 -62 -94 -99 -17 -43 -13 -127 8 -172 21 -46
90 -113 177 -172 34 -23 73 -56 87 -73 49 -58 47 -151 -3 -202 -24 -23 -37
-28 -79 -28 -42 0 -56 5 -85 30 -19 17 -42 50 -52 74 l-18 44 -33 -16 c-38
-18 -39 -23 -14 -77 37 -82 103 -125 191 -125 90 0 168 48 191 119 18 52 13
144 -9 195 -20 44 -54 75 -176 161 -102 72 -140 160 -101 235 29 55 105 76
166 44 30 -15 68 -80 69 -116 0 -21 -1 -21 39 -7 34 12 36 17 21 71 -14 48
-55 97 -97 114 -41 18 -149 17 -188 0z"/>
<path d="M14670 4149 c-75 -43 -107 -132 -116 -324 -6 -117 5 -261 26 -336 24
-85 82 -135 167 -145 107 -13 188 39 218 139 40 132 37 446 -5 559 -22 59 -59
101 -103 117 -48 19 -148 13 -187 -10z m155 -53 c70 -30 102 -168 92 -401 -9
-208 -46 -285 -137 -285 -113 0 -150 86 -150 344 0 216 24 305 90 338 42 22
60 22 105 4z"/>
<path d="M16745 4156 c-58 -26 -90 -76 -104 -168 -7 -43 -6 -47 16 -57 42 -19
50 -14 56 40 12 103 75 155 158 130 61 -18 81 -58 76 -146 -5 -90 -31 -147
-181 -400 -64 -107 -116 -197 -116 -200 0 -3 95 -5 210 -5 l210 0 0 40 0 39
-150 3 -151 3 92 150 c50 83 108 184 128 225 33 69 36 82 36 165 0 79 -3 94
-24 124 -13 18 -42 42 -65 52 -49 22 -147 25 -191 5z"/>
<path d="M17325 4156 c-41 -18 -92 -77 -104 -123 -15 -52 -14 -492 0 -550 43
-168 299 -195 381 -40 22 40 23 55 26 282 3 160 0 258 -8 293 -13 61 -57 118
-107 138 -41 18 -149 17 -188 0z m145 -62 c70 -28 80 -62 80 -260 0 -150 -2
-166 -17 -160 -28 11 -220 189 -238 221 -36 64 19 195 88 208 40 8 46 7 87 -9z
m-29 -374 l109 -102 0 -49 c0 -105 -54 -164 -143 -156 -27 2 -56 12 -68 23
-46 41 -53 71 -57 232 -2 83 -1 159 2 168 8 21 20 12 157 -116z"/>
<path d="M17900 4159 c-55 -22 -95 -77 -109 -153 l-8 -44 37 -15 38 -14 6 43
c8 65 32 103 73 121 110 45 197 -58 159 -189 -22 -76 -72 -118 -140 -118 -33
0 -36 -2 -36 -29 0 -27 3 -29 53 -35 132 -17 193 -125 137 -241 -61 -126 -238
-85 -266 62 l-6 32 -34 -16 c-19 -9 -34 -21 -34 -27 0 -33 25 -91 53 -123 43
-49 98 -73 173 -73 123 0 201 76 211 204 9 102 -22 164 -103 212 -18 11 -17
13 12 40 59 56 81 133 64 224 -13 66 -42 107 -94 131 -45 20 -144 25 -186 8z"/>
<path d="M18443 4151 c-95 -44 -118 -141 -111 -455 5 -214 16 -257 77 -308 79
-67 209 -62 283 10 60 57 63 77 63 362 0 239 -1 258 -21 301 -12 25 -39 59
-60 75 -32 25 -47 29 -113 32 -59 2 -86 -2 -118 -17z m173 -66 c53 -35 59 -56
62 -242 3 -131 1 -173 -9 -173 -12 0 -85 62 -196 167 -59 55 -63 61 -63 104 0
127 112 206 206 144z m-90 -325 c144 -130 154 -143 154 -192 -1 -93 -56 -158
-134 -158 -50 0 -83 18 -109 59 -20 33 -22 51 -25 204 -3 139 -1 167 11 167 7
0 54 -36 103 -80z"/>
<path d="M6020 3755 l0 -405 40 0 40 0 0 190 0 190 125 0 125 0 0 -190 0 -190
40 0 40 0 0 405 0 405 -40 0 -40 0 0 -175 0 -175 -125 0 -125 0 0 175 0 175
-40 0 -40 0 0 -405z"/>
<path d="M6614 3755 l-101 -405 41 0 41 0 30 128 30 127 110 0 110 0 27 -123
c14 -68 28 -126 31 -128 3 -3 23 -4 45 -2 l39 3 -101 403 -101 402 -50 0 -50
0 -101 -405z m201 106 c19 -85 35 -158 35 -162 0 -5 -38 -9 -85 -9 -47 0 -85
4 -85 9 0 18 71 335 77 345 10 15 19 -15 58 -183z"/>
<path d="M7550 4125 l0 -35 85 0 85 0 0 -370 0 -370 40 0 40 0 0 370 0 370 85
0 85 0 0 35 0 35 -210 0 -210 0 0 -35z"/>
<path d="M8046 3768 c-54 -216 -100 -399 -103 -405 -3 -9 8 -13 39 -13 l43 0
29 130 29 130 108 0 108 0 10 -37 c5 -21 17 -69 25 -108 9 -38 18 -80 21 -92
5 -20 12 -23 49 -23 l44 0 -102 405 -101 405 -50 0 -51 0 -98 -392z m187 135
c19 -82 38 -163 42 -180 l7 -33 -86 0 c-62 0 -86 4 -86 12 0 29 75 348 81 348
4 0 23 -66 42 -147z"/>
<path d="M8775 3755 l0 -405 177 0 178 0 0 40 0 40 -140 0 -140 0 0 150 0 150
105 0 105 0 0 40 0 40 -105 0 -106 0 3 138 3 137 133 -1 132 -1 0 39 0 38
-173 0 -172 0 0 -405z"/>
<path d="M9245 3755 l0 -405 158 0 157 0 0 40 0 40 -121 0 -121 0 4 365 4 365
-41 0 -40 0 0 -405z"/>
<path d="M10105 4099 c-33 -33 -88 -83 -122 -111 -65 -51 -73 -67 -48 -88 11
-9 27 -1 84 44 38 31 77 56 85 56 9 0 18 -11 22 -25 3 -14 5 -160 3 -325 l-4
-300 40 0 40 0 2 405 2 405 -22 0 c-14 0 -45 -22 -82 -61z"/>
<path d="M10500 4113 c0 -27 -7 -109 -15 -183 -8 -74 -15 -140 -15 -147 0 -6
14 -16 32 -22 28 -10 34 -9 60 16 21 20 40 27 80 30 95 7 146 -46 156 -162 6
-81 -17 -161 -58 -200 -27 -26 -39 -30 -85 -30 -64 0 -99 27 -117 89 -15 55
-20 59 -55 44 l-30 -13 12 -49 c41 -161 268 -197 362 -57 33 48 43 94 43 192
0 108 -19 167 -70 213 -58 52 -164 61 -229 19 l-24 -15 8 83 c4 46 10 102 14
124 l7 40 132 -1 132 -1 0 39 0 38 -170 0 -170 0 0 -47z"/>
<path d="M11275 3754 l0 -406 130 4 c185 6 232 33 269 158 36 118 30 433 -10
529 -39 94 -96 120 -264 121 l-125 0 0 -406z m272 310 c15 -11 37 -38 48 -60
18 -35 20 -59 20 -244 0 -189 -2 -209 -22 -252 -28 -61 -63 -79 -161 -81 l-77
-2 -3 334 -2 333 84 -3 c66 -3 91 -9 113 -25z"/>
<path d="M11835 3755 l0 -405 178 0 177 0 0 40 0 40 -135 0 -135 0 0 150 0
150 100 0 100 0 0 40 0 40 -100 0 -100 0 0 141 0 142 130 -5 130 -6 0 39 0 39
-172 0 -173 0 0 -405z"/>
<path d="M12554 3755 l0 -405 178 0 178 0 0 40 0 40 -140 0 -140 0 0 150 0
150 105 0 105 0 0 40 0 40 -105 0 -106 0 3 138 3 137 133 -1 132 -1 0 39 0 38
-173 0 -173 0 0 -405z"/>
<path d="M13025 3755 l0 -405 35 0 35 0 -4 295 c-2 162 1 295 5 295 5 0 63
-132 130 -293 113 -272 123 -292 148 -295 l26 -3 0 405 0 406 -35 0 -35 0 -2
-292 -3 -292 -121 289 c-117 282 -121 290 -150 293 l-29 3 0 -406z"/>
<path d="M13565 3755 l0 -405 178 0 177 0 0 40 0 40 -140 0 -140 0 0 150 0
150 105 0 105 0 0 40 0 40 -105 0 -106 0 3 138 3 137 133 -1 132 -1 0 39 0 38
-172 0 -173 0 0 -405z"/>
<path d="M14035 3755 l0 -405 43 0 43 0 -7 165 -7 165 86 0 c82 0 86 -1 110
-29 21 -25 26 -47 36 -148 7 -65 13 -125 14 -133 2 -10 17 -16 51 -18 48 -3
48 -3 42 25 -3 15 -13 80 -22 143 -15 106 -34 170 -52 170 -4 0 -13 4 -20 8
-9 6 -4 18 21 44 75 80 88 262 25 351 -37 52 -86 67 -233 67 l-130 0 0 -405z
m257 315 c39 -18 58 -67 58 -144 0 -131 -45 -178 -165 -174 l-70 3 -3 75 c-2
41 0 117 3 169 l7 93 72 -4 c39 -3 83 -11 98 -18z"/>
<path d="M15375 3756 l0 -406 102 0 c137 0 196 14 244 57 64 58 74 103 74 348
0 222 -6 264 -48 325 -42 63 -75 75 -232 78 l-140 4 0 -406z m265 316 c19 -9
42 -31 52 -48 27 -47 41 -182 35 -331 -6 -138 -22 -198 -63 -235 -24 -21 -93
-37 -156 -38 l-48 0 0 335 0 335 73 0 c49 0 83 -6 107 -18z"/>
<path d="M15942 3755 l0 -405 179 0 179 0 0 40 0 40 -140 0 -140 0 0 150 0
150 105 0 105 0 0 40 0 40 -105 0 -106 0 3 138 3 137 133 -1 132 -1 0 39 0 38
-174 0 -174 0 0 -405z"/>
<path d="M2824 3673 c-156 -125 -269 -222 -269 -231 0 -15 33 -17 353 -20 313
-2 353 0 359 13 5 14 -51 162 -147 392 l-26 62 -270 -216z"/>
<path d="M21555 3824 c-66 -58 -50 -78 23 -29 54 37 60 46 40 63 -10 7 -27 -2
-63 -34z"/>
<path d="M23803 3817 c-25 -24 -42 -47 -36 -50 5 -3 35 10 67 29 46 29 55 39
45 50 -17 21 -26 18 -76 -29z"/>
<path d="M30910 3621 c0 -204 2 -242 16 -255 16 -17 61 -21 82 -8 19 13 3 42
-24 42 -34 0 -36 18 -32 254 l3 206 -22 0 -23 0 0 -239z"/>
<path d="M20260 3822 c-49 -50 -71 -189 -51 -321 19 -120 52 -157 142 -155 83
1 119 54 119 174 l0 70 -65 0 c-58 0 -65 -2 -65 -20 0 -17 7 -20 40 -20 l40 0
0 -52 c0 -29 -6 -64 -13 -78 -27 -54 -102 -47 -134 12 -26 48 -26 277 0 330
33 65 105 68 135 5 14 -29 39 -36 48 -13 7 19 -21 73 -45 86 -11 5 -43 10 -71
10 -43 0 -56 -5 -80 -28z"/>
<path d="M21324 3836 c-11 -28 1 -51 25 -51 28 0 47 25 38 49 -8 20 -56 21
-63 2z"/>
<path d="M22220 3600 l0 -250 110 0 110 0 0 25 c0 25 -1 25 -85 25 l-86 0 3
93 3 92 63 -4 c61 -3 62 -3 62 23 0 25 -2 26 -65 26 l-65 0 0 85 0 85 80 0
c79 0 80 0 80 25 l0 25 -105 0 -105 0 0 -250z"/>
<path d="M24303 3834 c-9 -24 10 -49 38 -49 20 0 24 5 24 30 0 25 -4 30 -28
33 -18 2 -29 -2 -34 -14z"/>
<path d="M25580 3600 l0 -250 25 0 25 0 0 100 0 100 48 0 c67 0 80 -16 88
-118 7 -82 7 -82 35 -82 33 0 32 -5 18 97 -8 51 -18 85 -31 99 -19 21 -19 22
6 59 22 31 26 49 26 105 0 108 -40 140 -177 140 l-63 0 0 -250z m170 180 c15
-15 20 -33 20 -74 0 -30 -3 -62 -6 -71 -9 -23 -57 -45 -99 -45 l-35 0 0 105 0
105 50 0 c37 0 55 -5 70 -20z"/>
<path d="M27950 3600 l0 -250 25 0 25 0 0 250 0 250 -25 0 -25 0 0 -250z"/>
<path d="M28893 3834 c-9 -24 10 -49 38 -49 20 0 24 5 24 30 0 25 -4 30 -28
33 -18 2 -29 -2 -34 -14z"/>
<path d="M29857 3831 c-6 -25 10 -51 32 -51 26 0 44 25 36 50 -9 27 -60 28
-68 1z"/>
<path d="M21101 3740 c-5 -16 -17 -30 -25 -30 -23 0 -19 -37 4 -43 19 -5 20
-14 20 -131 0 -172 12 -192 106 -184 32 2 40 7 42 26 3 21 1 22 -36 16 -55 -9
-62 8 -62 155 l0 121 50 0 c43 0 50 3 50 20 0 17 -7 20 -50 20 -49 0 -50 1
-50 30 0 23 -5 30 -19 30 -12 0 -23 -11 -30 -30z"/>
<path d="M22778 3748 c-2 -13 -13 -27 -25 -33 -28 -12 -31 -45 -4 -45 18 0 19
-10 23 -139 4 -165 11 -181 87 -181 54 0 74 10 66 33 -5 11 -15 14 -38 11 -57
-8 -62 2 -65 146 l-4 130 51 0 c44 0 51 3 51 20 0 17 -7 20 -50 20 -49 0 -50
1 -50 30 0 23 -5 30 -19 30 -13 0 -21 -8 -23 -22z"/>
<path d="M23507 3741 c-4 -17 -14 -30 -26 -34 -28 -7 -27 -35 2 -39 21 -3 22
-7 27 -144 6 -164 10 -174 79 -174 53 0 76 12 68 33 -4 12 -15 14 -39 10 -54
-8 -62 11 -67 154 l-3 123 56 0 c49 0 56 2 56 20 0 18 -7 20 -55 20 -54 0 -55
0 -55 30 0 41 -35 43 -43 1z"/>
<path d="M28677 3741 c-4 -17 -14 -30 -26 -34 -28 -7 -27 -35 2 -39 21 -3 22
-7 27 -144 6 -164 10 -174 79 -174 53 0 76 12 68 33 -4 12 -15 14 -39 10 -54
-8 -62 11 -67 154 l-3 123 56 0 c49 0 56 2 56 20 0 18 -7 20 -55 20 -54 0 -55
0 -55 30 0 41 -35 43 -43 1z"/>
<path d="M29057 3741 c-4 -17 -14 -30 -26 -34 -28 -7 -27 -35 2 -39 21 -3 22
-7 27 -144 6 -164 10 -174 79 -174 53 0 76 12 68 33 -4 12 -15 14 -39 10 -54
-8 -62 11 -67 154 l-3 123 56 0 c49 0 56 2 56 20 0 18 -7 20 -55 20 -54 0 -55
0 -55 30 0 41 -35 43 -43 1z"/>
<path d="M23102 3715 c-18 -8 -35 -21 -38 -30 -9 -24 -24 -18 -24 10 0 18 -5
25 -20 25 -19 0 -20 -7 -20 -185 l0 -185 25 0 25 0 0 140 c0 127 2 142 20 160
12 12 33 20 55 20 37 0 38 2 29 38 -7 26 -8 26 -52 7z"/>
<path d="M24203 3709 c-20 -20 -22 -21 -44 -5 -14 9 -43 16 -72 16 -38 0 -53
-5 -72 -25 -22 -21 -25 -33 -25 -100 0 -61 4 -79 19 -94 17 -17 18 -24 8 -50
-16 -43 11 -71 69 -71 71 0 94 -14 94 -55 0 -46 -29 -75 -75 -75 -44 0 -77 31
-73 68 4 34 -26 42 -42 12 -18 -33 -2 -79 33 -101 44 -26 126 -26 160 1 49 38
59 127 19 163 -10 9 -47 20 -82 24 -56 7 -65 11 -65 28 0 16 9 21 50 27 71 10
85 31 85 124 0 71 1 75 26 84 14 6 30 7 36 4 6 -4 8 3 6 17 -4 31 -28 35 -55
8z m-71 -36 c13 -12 18 -30 18 -70 0 -75 -12 -93 -60 -93 -48 0 -60 18 -60 89
0 78 54 118 102 74z"/>
<path d="M26890 3719 c-14 -6 -35 -20 -47 -31 l-23 -21 0 26 c0 20 -5 27 -20
27 -19 0 -20 -7 -20 -185 l0 -185 25 0 25 0 0 140 c0 127 2 142 20 160 12 12
33 20 55 20 37 0 38 2 29 38 -7 25 -9 25 -44 11z"/>
<path d="M20587 3700 c-50 -40 -63 -239 -20 -312 35 -60 137 -58 168 2 8 16
15 34 15 40 0 21 -34 9 -60 -22 -50 -59 -100 -18 -100 82 l0 50 85 0 c82 0 85
1 85 23 -1 51 -19 110 -40 133 -30 31 -95 33 -133 4z m107 -42 c9 -12 16 -37
16 -55 l0 -33 -61 0 -62 0 6 40 c3 23 11 47 17 55 19 23 66 19 84 -7z"/>
<path d="M20859 3707 c-39 -30 -51 -96 -24 -134 8 -12 42 -38 75 -58 54 -33
60 -40 60 -70 0 -24 -7 -39 -22 -49 -32 -23 -46 -20 -78 14 -49 53 -76 17 -28
-37 42 -45 136 -35 163 18 32 60 14 110 -52 150 -60 35 -83 60 -83 89 0 34 17
50 52 50 18 0 33 -8 44 -25 28 -42 66 -27 43 17 -19 36 -41 47 -89 47 -25 0
-52 -5 -61 -12z"/>
<path d="M21330 3535 l0 -185 23 0 22 0 0 185 0 185 -22 0 -23 0 0 -185z"/>
<path d="M21501 3701 c-53 -53 -56 -274 -4 -333 21 -24 67 -32 107 -18 55 18
68 59 64 195 -4 144 -18 168 -96 173 -40 2 -55 -1 -71 -17z m115 -56 c16 -39
19 -180 4 -219 -20 -53 -82 -57 -102 -8 -6 15 -11 68 -11 118 -1 109 15 144
64 144 25 0 32 -6 45 -35z"/>
<path d="M21760 3535 l0 -185 23 0 23 0 0 144 c-1 128 1 146 18 165 27 29 71
28 92 -4 13 -20 15 -48 12 -165 -3 -140 -3 -140 20 -140 22 0 22 1 22 159 0
145 -2 161 -21 185 -16 21 -29 26 -64 26 -26 0 -47 -6 -55 -15 -7 -8 -16 -15
-21 -15 -5 0 -9 7 -9 15 0 8 -9 15 -20 15 -19 0 -20 -7 -20 -185z"/>
<path d="M22527 3700 c-32 -26 -44 -78 -25 -116 7 -15 39 -44 71 -63 66 -40
82 -61 73 -97 -13 -50 -95 -53 -111 -5 -7 24 -33 28 -41 7 -16 -42 61 -93 122
-81 45 8 74 47 74 100 0 46 -16 65 -109 127 -42 29 -50 52 -31 89 19 35 88 20
102 -23 6 -16 38 -2 38 17 0 9 -11 27 -25 40 -32 32 -100 35 -138 5z"/>
<path d="M23217 3692 c-32 -33 -35 -68 -7 -75 14 -4 20 0 20 12 0 43 72 67
104 35 38 -38 14 -85 -64 -124 -69 -35 -90 -61 -90 -110 0 -65 70 -106 128
-76 17 9 32 21 35 28 3 9 10 6 22 -9 19 -27 75 -32 75 -8 0 9 -8 19 -17 22
-30 11 -33 24 -33 156 0 122 -1 129 -25 152 -36 37 -111 35 -148 -3z m128
-239 c-15 -61 -96 -88 -115 -38 -15 38 5 68 63 97 l52 25 3 -30 c2 -16 1 -41
-3 -54z"/>
<path d="M23763 3705 c-32 -22 -46 -79 -46 -181 0 -112 18 -158 69 -174 19 -7
47 -9 64 -5 53 12 97 95 50 95 -12 0 -24 -10 -30 -24 -18 -48 -81 -41 -100 10
-6 14 -10 45 -10 70 l0 44 85 0 85 0 0 33 c0 47 -19 106 -41 128 -23 23 -95
26 -126 4z m101 -41 c9 -8 16 -23 16 -32 0 -9 3 -27 6 -39 6 -22 4 -23 -60
-23 -74 0 -80 8 -52 75 12 29 20 35 45 35 16 0 37 -7 45 -16z"/>
<path d="M24315 3535 l0 -185 23 0 22 0 0 185 0 185 -23 0 -22 0 0 -185z"/>
<path d="M24481 3694 c-28 -35 -34 -77 -29 -194 3 -80 7 -103 23 -120 46 -51
124 -49 156 4 22 36 21 69 -2 74 -11 2 -18 -7 -22 -28 -14 -67 -97 -59 -111
11 -11 56 -6 169 9 205 13 31 18 35 47 32 26 -2 36 -10 48 -35 27 -57 64 -31
40 28 -16 38 -37 49 -94 49 -36 0 -48 -5 -65 -26z"/>
<path d="M24739 3691 c-32 -33 -38 -68 -12 -73 12 -2 23 7 33 27 12 23 23 31
50 33 39 4 60 -16 60 -58 0 -32 -18 -49 -87 -84 -28 -14 -59 -36 -67 -48 -23
-33 -20 -82 8 -115 32 -37 93 -39 130 -4 l24 23 11 -21 c16 -29 71 -30 71 -1
0 13 -7 20 -19 20 -27 0 -31 18 -31 156 0 119 -1 126 -25 149 -37 37 -106 35
-146 -4z m119 -258 c-16 -33 -61 -52 -86 -37 -21 14 -28 60 -11 80 7 9 33 26
58 39 l46 23 3 -39 c2 -21 -3 -51 -10 -66z"/>
<path d="M25140 3708 c2 -43 79 -351 90 -358 11 -7 11 -16 2 -49 -13 -42 -37
-57 -72 -46 -19 6 -19 4 -9 -19 9 -19 20 -26 39 -26 58 0 67 20 114 240 25
113 49 218 55 233 15 38 15 37 -19 37 -24 0 -30 -4 -30 -22 0 -34 -53 -298
-59 -292 -3 2 -19 73 -35 157 -28 139 -33 152 -53 155 -14 2 -23 -2 -23 -10z"/>
<path d="M25942 3697 c-31 -32 -42 -78 -42 -167 0 -137 28 -185 105 -185 49 0
90 30 98 71 3 20 0 24 -19 24 -14 0 -25 -8 -29 -21 -9 -29 -47 -44 -74 -30
-23 13 -34 46 -35 106 l-1 40 84 3 83 3 -4 60 c-6 84 -30 113 -94 117 -42 2
-53 -1 -72 -21z m113 -47 c8 -16 15 -40 15 -55 0 -24 -2 -25 -66 -25 l-66 0 7
33 c11 52 32 77 65 77 23 0 33 -7 45 -30z"/>
<path d="M26223 3705 c-30 -21 -43 -74 -43 -170 0 -142 27 -190 106 -190 53 0
85 27 87 75 3 44 -20 51 -34 11 -19 -53 -75 -65 -99 -21 -28 51 -23 226 7 256
9 9 28 14 47 12 25 -2 33 -9 41 -35 6 -22 15 -33 27 -33 28 0 24 55 -7 85 -29
30 -97 34 -132 10z"/>
<path d="M26462 3555 c3 -155 4 -166 26 -187 28 -29 91 -31 121 -4 19 17 21
17 21 3 0 -11 8 -17 25 -17 l25 0 0 185 0 185 -25 0 -25 0 0 -143 c0 -165 -8
-187 -65 -187 -24 0 -38 6 -45 19 -5 11 -10 84 -10 165 l0 146 -26 0 -26 0 4
-165z"/>
<path d="M27015 3695 c-19 -18 -25 -35 -25 -68 0 -53 9 -65 83 -112 63 -40 72
-52 63 -90 -13 -50 -87 -56 -108 -9 -12 27 -36 32 -44 10 -9 -23 25 -64 62
-76 63 -21 123 10 138 71 11 49 -11 85 -79 129 -78 51 -93 80 -59 114 25 26
72 20 86 -9 14 -31 48 -34 48 -5 0 12 -11 32 -25 45 -34 35 -106 35 -140 0z"/>
<path d="M27297 3709 c-33 -19 -47 -72 -47 -176 0 -112 17 -159 64 -182 39
-18 93 -4 120 32 16 22 21 46 24 120 5 101 -8 167 -39 198 -21 21 -91 26 -122
8z m100 -56 c14 -21 18 -48 18 -123 -1 -100 -11 -134 -45 -145 -29 -9 -57 11
-70 51 -15 44 -9 189 9 222 17 33 65 30 88 -5z"/>
<path d="M27554 3697 c-22 -19 -27 -33 -28 -69 -1 -54 9 -68 80 -109 60 -34
79 -59 70 -95 -14 -53 -88 -56 -110 -4 -11 27 -14 29 -31 16 -47 -34 40 -105
111 -91 45 8 74 47 74 100 0 46 -16 65 -109 127 -42 29 -50 52 -31 89 19 35
88 20 102 -23 6 -16 38 -2 38 17 0 9 -11 27 -25 40 -33 34 -103 35 -141 2z"/>
<path d="M28100 3535 l0 -185 25 0 25 0 0 143 c0 165 8 187 65 187 24 0 38 -6
45 -19 5 -11 10 -84 10 -165 l0 -146 25 0 25 0 0 138 c0 149 -10 206 -40 222
-29 15 -91 12 -112 -7 -17 -15 -18 -15 -18 0 0 11 -8 17 -25 17 l-25 0 0 -185z"/>
<path d="M28425 3695 c-19 -18 -25 -35 -25 -67 0 -55 4 -60 81 -111 72 -48 86
-80 50 -116 -28 -28 -47 -26 -83 9 -31 31 -43 36 -53 21 -11 -18 18 -60 52
-76 64 -31 131 1 147 69 11 47 -10 81 -80 126 -65 43 -80 65 -69 100 12 38 83
40 100 2 13 -31 45 -29 45 2 0 62 -116 91 -165 41z"/>
<path d="M28905 3535 l0 -185 23 0 22 0 0 185 0 185 -22 0 -23 0 0 -185z"/>
<path d="M29280 3561 c0 -154 1 -161 24 -188 29 -34 92 -39 125 -9 19 17 21
17 21 3 0 -11 8 -17 23 -17 l22 0 0 185 0 185 -22 0 c-23 0 -23 -1 -23 -143 0
-163 -8 -187 -64 -187 -53 0 -56 9 -56 177 l0 153 -25 0 -25 0 0 -159z"/>
<path d="M29623 3705 c-30 -21 -43 -74 -43 -170 0 -143 27 -190 107 -190 37 0
49 5 69 29 16 18 24 38 22 54 -5 38 -25 38 -42 -1 -16 -39 -45 -54 -76 -37
-27 14 -35 49 -35 151 0 106 18 142 68 137 26 -2 34 -9 42 -35 6 -22 15 -33
27 -33 28 0 24 55 -7 85 -29 30 -97 34 -132 10z"/>
<path d="M29865 3535 l0 -185 25 0 25 0 0 185 0 185 -25 0 -25 0 0 -185z"/>
<path d="M30041 3701 c-27 -27 -41 -84 -41 -166 1 -141 28 -190 105 -190 35 0
50 6 72 27 25 26 28 35 31 128 5 122 -2 165 -33 196 -31 31 -105 34 -134 5z
m116 -58 c11 -28 14 -62 11 -132 -4 -83 -7 -96 -27 -112 -50 -41 -86 -9 -96
84 -13 122 12 197 66 197 25 0 32 -6 46 -37z"/>
<path d="M30300 3535 l0 -185 23 0 c23 0 23 0 19 114 -7 173 7 216 68 216 21
0 35 -8 46 -25 15 -22 16 -46 11 -165 l-5 -140 24 0 24 0 0 159 c0 145 -2 161
-21 185 -16 21 -29 26 -63 26 -23 0 -52 -7 -64 -16 -20 -14 -22 -14 -22 0 0 9
-9 16 -20 16 -19 0 -20 -7 -20 -185z"/>
<path d="M30619 3691 c-32 -33 -38 -68 -12 -73 12 -2 23 7 33 27 12 23 23 31
50 33 39 4 60 -16 60 -58 0 -32 -18 -49 -87 -84 -28 -14 -59 -36 -67 -48 -23
-33 -20 -82 8 -115 31 -36 93 -39 128 -6 23 22 24 22 36 3 17 -28 72 -28 72 0
0 13 -7 20 -19 20 -27 0 -31 18 -31 156 0 119 -1 126 -25 149 -37 37 -106 35
-146 -4z m119 -258 c-16 -33 -61 -52 -86 -37 -21 14 -28 60 -11 80 7 9 33 26
58 39 l46 23 3 -39 c2 -21 -3 -51 -10 -66z"/>
<path d="M31106 3690 c-31 -37 -40 -96 -33 -203 6 -89 24 -124 71 -140 46 -15
101 6 120 47 21 44 21 46 -9 46 -15 0 -25 -6 -25 -15 0 -21 -45 -48 -70 -40
-28 9 -39 33 -42 96 l-3 54 84 3 83 3 -4 64 c-5 86 -31 115 -99 115 -40 0 -51
-4 -73 -30z m114 -25 c6 -8 14 -32 17 -55 l6 -40 -66 0 -66 0 5 33 c10 51 31
77 63 77 16 0 34 -7 41 -15z"/>
<path d="M31375 3695 c-19 -18 -25 -35 -25 -69 0 -47 15 -65 109 -128 33 -22
41 -34 41 -57 0 -20 -8 -35 -22 -45 -32 -23 -46 -20 -79 15 -17 19 -35 29 -44
25 -21 -8 -19 -20 10 -54 50 -59 144 -50 172 16 26 63 12 96 -67 148 -73 49
-88 75 -64 111 21 33 67 31 92 -4 13 -17 25 -24 35 -20 20 7 13 32 -16 65 -30
33 -108 31 -142 -3z"/>
<path d="M1461 3135 c-220 -62 -350 -229 -367 -473 -23 -315 109 -519 372
-578 85 -18 288 -15 357 5 l37 12 0 93 0 93 -57 -20 c-39 -13 -86 -19 -143
-20 -213 -1 -325 91 -350 288 -24 190 41 344 174 413 79 40 253 43 350 6 14
-5 16 5 16 84 0 76 -3 91 -17 98 -10 4 -85 9 -168 11 -111 2 -164 -1 -204 -12z"/>
<path d="M2090 2610 l0 -520 90 0 90 0 2 348 3 349 245 -349 244 -348 83 0 83
0 0 520 0 520 -90 0 -90 0 0 -350 c0 -192 -3 -350 -7 -349 -5 0 -116 156 -248
347 l-241 347 -82 3 -82 3 0 -521z"/>
<path d="M3295 2623 c-98 -280 -180 -514 -183 -520 -3 -10 22 -13 105 -13
l109 0 39 130 39 130 184 -2 185 -3 8 -25 c4 -14 22 -71 40 -127 l32 -103 109
0 c84 0 109 3 106 13 -3 6 -85 240 -183 520 l-179 507 -116 0 -116 0 -179
-507z m364 101 c33 -111 61 -204 61 -208 0 -9 -260 -7 -260 2 -2 20 125 420
131 414 3 -4 34 -98 68 -208z"/>
<path d="M26140 3023 c0 -83 -1 -85 -18 -70 -21 19 -64 22 -93 7 -69 -37 -79
-281 -13 -346 27 -28 70 -31 104 -7 17 12 25 13 28 5 2 -7 10 -12 18 -12 12 0
14 32 14 188 0 103 3 217 7 255 l6 67 -27 0 -26 0 0 -87z m-20 -113 c18 -18
20 -33 20 -128 0 -113 -7 -135 -46 -146 -32 -10 -65 23 -75 74 -29 153 30 271
101 200z"/>
<path d="M26720 2874 c0 -143 4 -243 10 -255 11 -19 51 -26 83 -13 23 8 9 47
-15 41 -35 -10 -40 24 -36 249 l3 214 -22 0 -23 0 0 -236z"/>
<path d="M27960 2877 c0 -267 3 -280 68 -275 29 2 37 7 37 23 0 14 -8 21 -27
23 l-28 3 0 230 0 229 -25 0 -25 0 0 -233z"/>
<path d="M28446 3028 c7 -77 6 -81 -12 -73 -10 5 -35 10 -55 13 -30 3 -40 -1
-62 -27 -33 -40 -40 -80 -35 -192 3 -70 9 -95 25 -117 30 -40 67 -51 106 -28
20 11 33 14 35 7 2 -6 12 -11 23 -11 18 0 19 10 19 255 l0 255 -26 0 -25 0 7
-82z m-30 -106 c24 -16 34 -55 34 -136 0 -46 -4 -96 -10 -110 -12 -34 -42 -48
-74 -36 -35 13 -49 68 -45 169 4 73 7 85 28 102 24 20 48 24 67 11z"/>
<path d="M29040 3024 l0 -85 -22 15 c-51 36 -116 7 -136 -62 -15 -50 -15 -160
-1 -218 19 -74 76 -104 129 -67 17 12 25 13 28 5 2 -7 12 -12 23 -12 18 0 19
10 19 255 0 248 -1 255 -20 255 -18 0 -20 -7 -20 -86z m-20 -114 c17 -17 20
-33 20 -121 0 -105 -7 -131 -41 -149 -49 -27 -89 41 -89 152 0 115 54 174 110
118z"/>
<path d="M22639 3084 c-16 -20 -1 -48 29 -52 27 -4 49 33 31 54 -15 19 -43 18
-60 -2z"/>
<path d="M27397 3080 c-54 -43 -62 -71 -62 -230 0 -165 11 -205 67 -240 46
-29 109 -22 149 16 33 32 49 91 28 105 -22 14 -26 11 -38 -23 -14 -40 -49 -78
-71 -78 -32 0 -67 38 -79 84 -14 57 -14 219 0 269 13 49 42 77 78 77 36 0 71
-40 71 -81 0 -22 5 -29 19 -29 11 0 23 4 26 10 10 17 -6 76 -29 105 -19 23
-32 29 -77 33 -45 3 -59 0 -82 -18z"/>
<path d="M28135 3090 c-4 -6 -4 -22 -1 -36 5 -20 12 -25 34 -22 23 2 27 8 27
33 0 25 -4 31 -27 33 -14 2 -29 -2 -33 -8z"/>
<path d="M20236 2863 c-31 -126 -59 -236 -62 -245 -4 -14 0 -18 19 -18 23 0
26 7 44 78 l19 77 66 3 c74 3 69 8 88 -90 13 -64 15 -68 41 -68 l26 0 -61 245
-61 245 -31 0 -32 0 -56 -227z m117 55 c13 -57 23 -106 20 -110 -2 -5 -27 -8
-55 -8 -47 0 -50 2 -46 23 31 149 43 197 49 197 4 0 18 -46 32 -102z"/>
<path d="M24050 2845 l0 -245 23 0 22 0 0 245 0 245 -22 0 -23 0 0 -245z"/>
<path d="M23400 3000 c0 -11 -11 -27 -25 -36 -30 -20 -32 -40 -5 -47 19 -5 20
-14 20 -125 0 -141 10 -176 52 -191 45 -16 108 2 101 28 -4 16 -11 18 -40 14
-56 -9 -63 9 -63 154 l0 123 50 0 c43 0 50 3 50 20 0 17 -7 20 -50 20 -49 0
-50 1 -50 30 0 23 -4 30 -20 30 -13 0 -20 -7 -20 -20z"/>
<path d="M24520 3000 c0 -11 -11 -27 -25 -36 -30 -20 -32 -40 -5 -47 19 -5 20
-14 20 -129 0 -136 9 -165 54 -187 37 -17 111 1 102 25 -3 9 -6 17 -6 19 0 2
-16 1 -36 -2 -57 -9 -64 8 -64 154 l0 123 50 0 c43 0 50 3 50 20 0 17 -7 20
-50 20 -49 0 -50 1 -50 30 0 23 -4 30 -20 30 -13 0 -20 -7 -20 -20z"/>
<path d="M21266 2959 c-24 -19 -27 -19 -48 -5 -36 25 -111 21 -145 -8 -26 -23
-28 -29 -28 -99 0 -64 3 -79 22 -99 16 -17 20 -27 12 -35 -15 -15 -7 -64 11
-74 8 -4 42 -11 74 -16 65 -9 83 -25 72 -66 -9 -39 -33 -57 -76 -57 -46 0 -70
21 -70 61 0 33 -26 51 -41 28 -19 -31 -10 -77 22 -103 25 -22 41 -26 91 -26
53 0 63 3 89 29 24 25 29 38 29 78 0 69 -15 84 -91 95 -35 4 -67 12 -72 17
-17 17 1 41 32 41 41 0 77 15 87 37 4 10 10 52 13 93 l6 75 33 3 c25 3 32 7
28 19 -3 8 -6 19 -6 24 0 15 -15 11 -44 -12z m-80 -33 c15 -12 19 -27 19 -80
0 -36 -4 -69 -10 -75 -22 -21 -61 -22 -85 -3 -21 17 -24 29 -24 77 0 48 4 60
23 76 28 23 50 24 77 5z"/>
<path d="M20539 2941 c-20 -21 -29 -39 -29 -63 0 -44 20 -71 85 -113 65 -41
81 -66 64 -97 -25 -48 -60 -50 -99 -8 -30 32 -61 32 -53 0 10 -39 52 -65 105
-65 42 0 53 4 74 28 24 28 31 76 18 112 -4 9 -34 35 -68 57 -33 23 -64 46 -68
52 -12 17 -9 61 4 74 21 21 66 14 84 -13 18 -28 54 -34 54 -9 0 8 -13 29 -29
45 -23 23 -38 29 -71 29 -33 0 -48 -6 -71 -29z"/>
<path d="M20817 2950 c-63 -50 -63 -290 1 -340 45 -36 121 -21 147 29 20 40
19 51 -5 51 -12 0 -25 -10 -32 -25 -25 -55 -93 -40 -103 23 -3 20 -8 49 -10
65 l-4 27 89 0 c102 0 98 -5 80 91 -7 37 -18 61 -36 77 -32 28 -92 30 -127 2z
m103 -35 c6 -8 14 -32 17 -55 l6 -40 -63 0 -63 0 6 40 c7 51 22 70 57 70 15 0
33 -7 40 -15z"/>
<path d="M21761 2945 c-30 -26 -31 -26 -31 -6 0 16 -6 21 -25 21 l-25 0 0
-180 0 -180 25 0 25 0 0 135 c0 131 1 137 25 160 15 16 36 25 55 25 27 0 31 3
28 23 -4 32 -39 33 -77 2z"/>
<path d="M21899 2941 c-32 -32 -38 -65 -13 -75 22 -8 21 -9 28 19 13 52 100
59 112 10 12 -49 -2 -71 -71 -106 -78 -39 -85 -46 -92 -98 -5 -35 -2 -44 25
-71 38 -38 79 -40 121 -5 30 26 30 26 41 5 15 -28 70 -28 70 0 0 13 -7 20 -19
20 -26 0 -31 26 -31 167 0 119 0 122 -26 142 -41 33 -108 29 -145 -8z m131
-200 c0 -61 -31 -103 -74 -103 -32 0 -46 15 -46 54 0 29 29 54 118 97 1 0 2
-21 2 -48z"/>
<path d="M22256 2953 c-13 -13 -20 -15 -23 -5 -3 6 -13 12 -24 12 -18 0 -19
-9 -19 -180 l0 -180 24 0 25 0 -2 144 c-2 129 0 146 17 165 21 23 55 28 74 9
8 -8 12 -59 12 -165 l0 -153 25 0 25 0 0 145 c0 132 2 147 20 165 26 26 55 25
74 -2 13 -18 16 -52 16 -165 0 -142 0 -143 23 -143 l22 0 -3 162 c-3 150 -5
165 -24 185 -27 28 -76 30 -109 4 -24 -19 -25 -19 -48 0 -29 24 -81 24 -105 2z"/>
<path d="M22827 2950 c-33 -27 -47 -76 -47 -170 0 -94 14 -143 47 -170 49 -39
132 -17 152 41 14 41 15 39 -14 39 -14 0 -25 -6 -25 -13 0 -25 -37 -50 -64
-43 -32 8 -43 29 -52 94 l-7 52 87 0 86 0 0 50 c0 60 -20 114 -48 129 -33 17
-87 13 -115 -9z m90 -28 c14 -9 33 -56 33 -83 0 -17 -7 -19 -66 -19 l-66 0 7
33 c14 65 52 94 92 69z"/>
<path d="M23146 2953 c-13 -13 -20 -15 -23 -5 -3 6 -13 12 -24 12 -18 0 -19
-9 -19 -180 l0 -180 23 0 c22 0 22 1 22 144 0 129 2 146 19 165 14 15 29 21
50 19 51 -5 58 -33 51 -190 l-5 -138 25 0 25 0 0 160 c0 157 -1 161 -25 185
-30 30 -91 34 -119 8z"/>
<path d="M23637 2940 c-31 -36 -42 -111 -34 -213 9 -109 53 -151 134 -131 57
14 73 53 73 182 0 152 -22 192 -108 192 -32 0 -45 -6 -65 -30z m107 -25 c21
-22 29 -71 25 -165 -3 -65 -8 -83 -26 -101 -26 -26 -66 -20 -85 14 -19 36 -16
209 5 241 20 30 57 35 81 11z"/>
<path d="M24266 2953 c-13 -13 -20 -15 -23 -5 -3 6 -13 12 -24 12 -18 0 -19
-9 -19 -180 0 -180 0 -180 23 -180 22 0 22 1 22 144 0 129 2 146 19 165 14 15
29 21 50 19 50 -5 58 -33 53 -190 l-4 -138 23 0 24 0 0 160 c0 157 -1 161 -25
185 -30 30 -91 34 -119 8z"/>
<path d="M24767 2950 c-63 -50 -63 -290 1 -340 45 -36 121 -21 147 29 20 40
19 51 -5 51 -12 0 -25 -10 -32 -25 -25 -55 -93 -40 -103 23 -3 20 -8 49 -10
65 l-4 27 89 0 c102 0 98 -5 80 91 -7 37 -18 61 -36 77 -32 28 -92 30 -127 2z
m103 -35 c6 -8 14 -32 17 -55 l6 -40 -63 0 -63 0 6 40 c7 51 22 70 57 70 15 0
33 -7 40 -15z"/>
<path d="M25096 2945 c-33 -30 -36 -31 -36 -5 0 13 -7 20 -20 20 -19 0 -20 -7
-20 -180 l0 -180 25 0 25 0 0 139 c0 139 0 140 26 160 15 12 40 21 56 21 23 0
29 4 24 16 -3 9 -6 20 -6 25 0 18 -48 8 -74 -16z"/>
<path d="M25316 2953 c-13 -13 -20 -15 -23 -5 -3 6 -14 12 -26 12 -22 0 -22
-2 -22 -180 l0 -180 25 0 25 0 -3 138 c-3 128 -1 140 18 165 14 18 31 27 50
27 50 0 55 -18 52 -182 l-3 -148 26 0 26 0 -3 166 c-3 160 -4 166 -27 185 -30
24 -90 25 -115 2z"/>
<path d="M25585 2948 c-58 -51 -59 -285 0 -335 45 -39 123 -26 149 25 21 41
30 157 17 227 -13 74 -43 105 -101 105 -26 0 -48 -7 -65 -22z m112 -48 c16
-32 17 -200 1 -234 -21 -48 -77 -46 -98 4 -17 40 -10 221 9 244 21 25 72 17
88 -14z"/>
<path d="M26310 2942 c-34 -35 -44 -89 -38 -203 7 -117 47 -161 132 -145 36 7
57 29 71 74 5 19 3 22 -19 22 -15 0 -26 -6 -26 -13 0 -25 -37 -50 -64 -43 -32
8 -43 29 -52 94 l-7 52 87 0 86 0 0 55 c0 93 -33 135 -105 135 -27 0 -44 -8
-65 -28z m96 -20 c18 -11 34 -48 34 -76 0 -25 -2 -26 -65 -26 l-64 0 5 33 c12
64 52 95 90 69z"/>
<path d="M26911 2943 c-40 -38 -48 -69 -21 -76 14 -4 23 0 27 11 20 56 80 70
109 26 27 -40 9 -73 -58 -109 -84 -45 -98 -61 -98 -112 0 -52 33 -93 75 -93
31 0 81 24 88 42 3 9 10 6 22 -9 15 -22 75 -34 75 -15 0 13 -15 28 -32 35 -16
6 -18 22 -18 137 l0 132 -29 29 c-40 40 -98 41 -140 2z m129 -192 c0 -48 -21
-91 -51 -107 -36 -18 -66 -5 -75 32 -8 29 14 57 66 85 49 25 60 24 60 -10z"/>
<path d="M27691 2956 c-24 -13 -50 -51 -51 -73 0 -25 35 -18 55 12 43 63 132
22 105 -49 -6 -16 -29 -35 -62 -52 -82 -41 -98 -59 -98 -115 0 -39 4 -51 26
-68 36 -28 76 -26 113 4 30 26 30 26 41 5 8 -14 21 -20 45 -20 19 0 35 3 35 8
0 13 -14 28 -32 35 -14 5 -17 26 -20 142 -3 136 -3 137 -31 161 -32 27 -87 32
-126 10z m99 -282 c-7 -12 -24 -27 -37 -33 -48 -22 -93 33 -64 78 5 7 31 25
57 40 l49 26 3 -44 c2 -25 -2 -55 -8 -67z"/>
<path d="M28599 2941 c-32 -32 -38 -65 -13 -75 22 -8 21 -9 28 19 13 52 100
59 112 10 12 -49 -2 -71 -71 -105 -72 -36 -95 -60 -95 -102 0 -85 84 -127 147
-74 28 24 29 24 41 5 17 -27 72 -26 72 1 0 13 -7 20 -19 20 -27 0 -31 18 -31
156 0 119 -1 126 -25 149 -37 37 -106 35 -146 -4z m119 -258 c-29 -60 -100
-63 -106 -4 -4 40 9 56 67 86 l46 23 3 -39 c2 -21 -3 -51 -10 -66z"/>
<path d="M21370 2801 c0 -136 2 -162 18 -180 24 -30 84 -38 119 -16 18 12 28
14 31 7 2 -7 12 -12 23 -12 18 0 19 9 19 180 l0 180 -26 0 -26 0 7 -119 c8
-136 -2 -187 -41 -201 -38 -15 -72 3 -79 42 -3 18 -5 88 -3 156 3 121 3 122
-19 122 -23 0 -23 -1 -23 -159z"/>
<path d="M22645 2780 l0 -180 25 0 25 0 0 180 0 180 -25 0 -25 0 0 -180z"/>
<path d="M28145 2780 l0 -180 23 0 22 0 0 180 0 180 -22 0 -23 0 0 -180z"/>
<path d="M18320 2849 c-206 -36 -319 -204 -361 -535 -15 -124 -15 -501 0 -614
31 -222 79 -348 166 -435 79 -79 138 -99 290 -100 116 0 123 1 187 33 145 71
224 222 259 498 19 146 16 523 -5 657 -52 335 -174 485 -408 501 -40 3 -98 1
-128 -5z m155 -343 c63 -67 88 -209 88 -506 0 -355 -48 -520 -150 -520 -72 0
-120 84 -143 250 -18 125 -15 475 5 584 20 115 50 183 89 207 45 28 74 24 111
-15z"/>
<path d="M5957 2763 c10 -88 10 -1427 0 -1515 l-8 -68 145 0 144 0 -5 463 c-3
254 -2 459 2 455 3 -3 89 -210 189 -460 l183 -453 119 -3 119 -3 0 826 0 825
-140 0 -140 0 6 -107 c12 -193 21 -783 12 -783 -4 0 -90 199 -190 443 l-182
442 -131 3 -131 3 8 -68z"/>
<path d="M7057 2723 c10 -141 10 -1274 0 -1425 l-8 -118 168 0 168 0 0 825 0
825 -168 0 -168 0 8 -107z"/>
<path d="M7500 2817 c0 -7 15 -82 34 -167 42 -192 82 -400 186 -975 45 -247
84 -460 86 -472 4 -23 5 -23 213 -23 l209 0 12 73 c7 39 41 225 76 412 93 499
214 1154 214 1160 0 3 -72 5 -160 5 -88 0 -160 -3 -160 -7 0 -19 -123 -860
-151 -1037 -22 -131 -35 -193 -40 -180 -12 27 -62 354 -128 819 l-56 400 -168
3 c-132 2 -167 0 -167 -11z"/>
<path d="M8642 2738 c3 -51 6 -381 6 -733 0 -352 -3 -682 -6 -733 l-7 -92 383
0 382 0 0 163 0 163 -86 -8 c-48 -5 -143 -7 -213 -6 l-126 3 -3 194 -2 194
190 -6 190 -5 0 156 0 157 -190 -3 -190 -4 0 172 0 173 205 -5 205 -4 0 158 0
158 -372 0 -373 0 7 -92z"/>
<path d="M9597 2773 c10 -75 10 -1426 0 -1520 l-7 -73 380 0 380 0 0 166 0
166 -22 -6 c-13 -4 -110 -9 -215 -13 l-193 -6 1 554 c0 305 4 607 7 672 l7
117 -173 0 -172 0 7 -57z"/>
<path d="M11071 2728 c-30 -256 -145 -939 -225 -1340 l-42 -208 152 0 152 0 6
27 c3 16 14 89 26 163 11 74 23 147 26 163 l6 27 149 0 c82 0 149 -3 149 -6 0
-11 50 -328 55 -351 5 -23 8 -23 165 -23 101 0 160 4 160 10 0 6 -13 70 -29
143 -62 279 -169 883 -231 1307 -12 80 -23 155 -26 168 l-4 22 -239 0 -238 0
-12 -102z m274 -360 c6 -36 75 -490 75 -495 0 -2 -45 -3 -101 -3 l-101 0 6 28
c3 15 22 128 41 252 20 124 38 231 40 238 9 25 34 12 40 -20z"/>
<path d="M11810 2822 c0 -5 20 -103 44 -218 41 -191 153 -786 227 -1209 17
-93 32 -180 35 -192 4 -23 5 -23 214 -23 128 0 210 4 210 10 0 11 62 348 199
1087 56 298 101 544 101 547 0 4 -72 6 -159 6 l-160 0 -6 -42 c-127 -904 -175
-1210 -186 -1182 -11 26 -70 408 -133 852 l-51 367 -168 3 c-92 1 -167 -1
-167 -6z"/>
<path d="M13052 2653 c-41 -314 -192 -1182 -246 -1413 l-14 -60 154 0 c151 0
154 0 158 23 3 12 12 69 21 127 8 58 20 133 26 168 l11 62 149 0 c82 0 149 -2
149 -5 0 -9 50 -329 56 -352 4 -23 6 -23 168 -23 l164 0 -14 52 c-48 180 -208
1072 -263 1468 l-17 125 -240 3 -239 2 -23 -177z m282 -280 c6 -27 76 -489 76
-498 0 -3 -45 -5 -101 -5 -100 0 -101 0 -96 23 3 12 22 126 42 252 20 127 38
236 40 243 8 22 33 12 39 -15z"/>
<path d="M13955 2005 l0 -825 143 0 144 0 -6 63 c-10 112 -18 857 -9 857 4 0
91 -207 192 -460 l185 -460 123 0 124 0 -8 48 c-10 61 -10 1493 0 1555 l8 47
-147 0 -147 0 7 -62 c11 -114 19 -834 9 -823 -6 6 -91 207 -189 447 l-179 438
-125 0 -125 0 0 -825z"/>
<path d="M15010 2672 l0 -158 175 4 c138 4 175 2 175 -8 0 -24 -312 -1038
-385 -1249 -14 -41 -25 -76 -25 -78 0 -2 189 -3 420 -3 l420 0 0 160 0 160
-205 0 c-113 0 -205 4 -205 8 0 12 291 956 354 1147 31 93 56 171 56 172 0 2
-175 3 -390 3 l-390 0 0 -158z"/>
<path d="M16100 2821 c0 -115 -214 -1371 -275 -1614 l-7 -27 155 0 154 0 27
178 c15 97 29 183 31 190 3 9 43 12 153 12 l148 0 29 -190 29 -190 163 0 c90
0 163 2 163 5 0 2 -16 75 -35 162 -58 258 -202 1088 -250 1436 l-6 47 -240 0
c-132 0 -239 -4 -239 -9z m260 -431 c0 -13 69 -471 75 -497 5 -23 4 -23 -95
-23 -55 0 -100 3 -100 8 0 4 19 123 41 265 37 228 44 257 60 257 11 0 19 -4
19 -10z"/>
<path d="M16977 2793 c10 -50 10 -1504 0 -1566 l-8 -49 288 4 c271 4 291 5
345 27 118 46 189 150 228 336 18 84 23 146 27 381 7 377 -13 567 -76 709 -28
63 -102 139 -164 166 -50 23 -62 24 -350 27 l-298 3 8 -38z m473 -238 c82 -42
102 -150 103 -545 0 -315 -8 -404 -46 -479 -33 -67 -64 -85 -153 -89 l-74 -4
0 566 0 566 70 0 c43 0 82 -6 100 -15z"/>
<path d="M21578 2118 c3 -142 8 -248 14 -255 6 -7 28 -13 50 -13 35 0 39 2 36
23 -2 12 -10 22 -18 22 -38 1 -40 10 -40 241 l0 224 -23 0 -23 0 4 -242z"/>
<path d="M22545 2316 c-55 -48 -55 -70 -1 -41 60 32 77 50 70 68 -9 24 -14 22
-69 -27z"/>
<path d="M24510 2117 c0 -176 3 -246 12 -255 12 -12 80 -17 90 -6 3 3 4 14 1
25 -4 13 -11 18 -23 14 -37 -12 -41 14 -38 244 l3 221 -22 0 -23 0 0 -243z"/>
<path d="M25690 2275 l0 -84 -28 16 c-57 33 -112 -5 -133 -90 -14 -61 -6 -185
16 -227 26 -51 79 -65 125 -33 17 12 25 13 28 5 2 -7 10 -12 18 -12 12 0 14
32 14 188 0 103 3 217 7 255 l6 67 -27 0 -26 0 0 -85z m-20 -115 c18 -18 20
-33 20 -130 0 -97 -2 -112 -20 -130 -26 -26 -46 -25 -74 3 -46 46 -46 208 0
254 28 28 48 29 74 3z"/>
<path d="M20520 2335 c-18 -21 -3 -55 24 -55 33 0 50 23 36 49 -12 24 -42 27
-60 6z"/>
<path d="M22314 2336 c-3 -8 -4 -23 -2 -33 5 -25 61 -25 66 0 7 37 -51 67 -64
33z"/>
<path d="M25834 2336 c-3 -8 -4 -23 -2 -33 5 -25 61 -25 66 0 7 37 -51 67 -64
33z"/>
<path d="M20173 2328 c3 -7 31 -118 62 -245 55 -224 58 -233 81 -233 14 0 26
6 28 13 2 6 27 107 55 222 28 116 54 220 57 233 5 18 2 22 -18 22 -23 0 -26
-8 -62 -162 -21 -90 -43 -181 -49 -203 l-10 -40 -14 65 c-8 36 -29 126 -46
200 -32 132 -33 135 -61 138 -20 3 -27 0 -23 -10z"/>
<path d="M24840 2095 c0 -237 1 -245 20 -245 19 0 20 8 22 183 l3 182 33 -130
c76 -298 77 -299 137 -70 23 88 44 167 47 175 4 8 7 -65 7 -162 l1 -178 25 0
25 0 0 246 0 245 -32 -3 -32 -3 -46 -187 c-25 -103 -48 -190 -51 -193 -4 -3
-28 82 -54 189 l-47 196 -29 0 -29 0 0 -245z"/>
<path d="M20751 2204 c-17 -13 -26 -14 -29 -6 -2 7 -12 12 -23 12 -18 0 -19
-9 -19 -180 l0 -180 23 0 c22 0 22 1 22 146 0 141 1 146 24 165 28 23 50 24
77 5 17 -13 19 -27 17 -165 l-1 -151 25 0 24 0 -3 165 c-3 185 -6 193 -74 201
-27 4 -46 0 -63 -12z"/>
<path d="M21027 2209 c-67 -39 -76 -290 -12 -346 28 -25 82 -30 117 -12 18 10
48 64 48 88 0 5 -8 11 -17 13 -12 3 -21 -6 -29 -26 -6 -16 -17 -34 -26 -39
-23 -15 -63 0 -76 28 -15 33 -16 196 0 229 22 50 80 45 99 -8 9 -25 17 -32 31
-28 10 2 18 8 18 13 0 24 -30 78 -48 88 -26 14 -81 14 -105 0z"/>
<path d="M21779 2206 c-34 -20 -58 -74 -38 -87 21 -13 25 -11 37 16 25 54 104
56 114 2 8 -42 -9 -65 -69 -96 -76 -38 -98 -63 -98 -111 0 -82 91 -121 148
-64 25 25 26 25 37 5 7 -15 21 -21 44 -21 29 0 33 3 29 20 -3 11 -13 20 -23
20 -16 0 -18 13 -22 140 -3 127 -5 141 -24 161 -28 27 -99 35 -135 15z m111
-216 c0 -51 -16 -85 -47 -99 -32 -15 -60 -6 -68 20 -13 39 4 68 53 93 26 14
50 25 55 26 4 0 7 -18 7 -40z"/>
<path d="M22077 2200 c-28 -23 -47 -89 -47 -170 0 -129 36 -190 112 -190 41 0
88 34 88 64 0 8 3 21 6 29 3 9 -2 16 -14 19 -14 4 -22 -3 -31 -28 -20 -55 -82
-60 -101 -9 -13 33 -13 196 -1 228 20 51 83 46 101 -7 8 -27 15 -33 30 -29 24
6 24 13 5 58 -23 55 -99 73 -148 35z"/>
<path d="M22495 2197 c-59 -50 -58 -284 0 -334 17 -16 39 -23 65 -23 58 0 88
31 101 105 21 112 -4 240 -50 265 -34 18 -88 12 -116 -13z m99 -33 c24 -23 28
-53 24 -159 -2 -83 -6 -99 -23 -111 -29 -21 -67 -14 -82 16 -16 32 -17 204 -2
233 21 40 56 49 83 21z"/>
<path d="M22820 2203 c-17 -12 -25 -13 -28 -5 -2 7 -12 12 -23 12 -18 0 -19
-9 -19 -180 l0 -180 25 0 25 0 0 145 c0 132 2 147 20 165 27 27 65 26 84 -2
13 -18 16 -52 16 -165 l0 -143 26 0 c24 0 26 3 20 31 -3 17 -6 90 -6 161 0
124 -1 130 -25 153 -29 30 -79 33 -115 8z"/>
<path d="M23252 2210 c-37 -15 -52 -68 -52 -180 0 -109 14 -161 48 -179 33
-17 87 -13 115 9 31 24 46 78 26 91 -21 13 -24 11 -34 -23 -12 -39 -34 -53
-68 -44 -36 9 -50 66 -45 173 5 90 22 123 64 123 24 0 54 -34 54 -61 0 -12 6
-16 20 -12 30 8 25 49 -9 84 -31 31 -73 37 -119 19z"/>
<path d="M23522 2210 c-36 -15 -55 -73 -55 -175 -1 -144 27 -195 105 -195 74
0 107 58 108 188 0 155 -58 222 -158 182z m86 -48 c35 -35 39 -207 6 -259 -14
-23 -48 -30 -71 -15 -22 14 -33 62 -33 142 0 80 11 128 33 142 20 13 46 9 65
-10z"/>
<path d="M23838 2206 c-16 -8 -28 -11 -28 -5 0 5 -11 9 -25 9 l-25 0 0 -180 0
-180 25 0 25 0 0 145 c0 132 2 147 20 165 24 24 63 26 84 4 13 -13 16 -42 16
-165 l0 -149 26 0 26 0 -4 161 -3 161 -28 24 c-32 27 -69 31 -109 10z"/>
<path d="M24257 2200 c-34 -27 -47 -76 -47 -177 0 -90 20 -157 51 -173 24 -13
85 -13 111 1 16 9 48 64 48 84 0 3 -11 5 -25 5 -15 0 -25 -6 -25 -14 0 -22
-29 -46 -55 -46 -32 0 -54 35 -62 99 l-6 51 87 0 86 0 0 50 c0 66 -22 117 -55
130 -41 16 -80 12 -108 -10z m90 -28 c14 -9 33 -56 33 -83 0 -17 -7 -19 -66
-19 -56 0 -65 2 -60 16 3 9 6 24 6 35 0 39 55 72 87 51z"/>
<path d="M25303 2210 c-33 -13 -54 -64 -60 -144 -7 -96 11 -180 44 -206 55
-43 143 -14 159 53 5 23 3 27 -15 27 -13 0 -26 -10 -33 -25 -12 -26 -47 -41
-73 -31 -21 8 -35 49 -35 102 l0 44 85 0 c96 0 93 -4 75 91 -16 84 -73 119
-147 89z m81 -43 c9 -7 20 -32 23 -55 l6 -42 -62 0 c-59 0 -61 1 -61 26 0 65
50 103 94 71z"/>
<path d="M26017 2200 c-28 -23 -47 -89 -47 -170 0 -126 36 -190 107 -190 81 0
107 45 107 185 -1 116 -18 169 -59 185 -41 16 -80 12 -108 -10z m89 -28 c25
-16 34 -55 34 -141 0 -100 -12 -139 -47 -147 -59 -15 -76 24 -71 164 3 89 6
106 22 118 22 15 45 18 62 6z"/>
<path d="M20525 2030 c0 -179 0 -180 22 -180 22 0 22 2 25 180 l3 180 -25 0
-25 0 0 -180z"/>
<path d="M21260 2050 c0 -157 1 -161 25 -185 29 -30 89 -34 118 -7 15 12 21
14 24 5 3 -7 13 -13 24 -13 18 0 19 9 19 180 0 180 0 180 -22 180 -23 0 -23
-1 -23 -146 0 -141 -1 -146 -24 -165 -28 -23 -50 -24 -77 -5 -17 13 -19 27
-19 165 0 150 0 151 -22 151 -23 0 -23 0 -23 -160z"/>
<path d="M22320 2030 l0 -180 25 0 25 0 0 180 0 180 -25 0 -25 0 0 -180z"/>
<path d="M25840 2030 l0 -180 23 0 c22 0 22 0 22 180 l0 180 -22 0 c-23 0 -23
0 -23 -180z"/>
<path d="M2310 1775 c-13 -14 -18 -25 -11 -25 19 0 61 31 55 41 -9 14 -19 11
-44 -16z"/>
<path d="M3780 1690 c0 -103 1 -110 20 -110 21 0 27 15 10 25 -6 3 -10 48 -10
101 0 56 -4 94 -10 94 -6 0 -10 -43 -10 -110z"/>
<path d="M1375 1767 c-35 -29 -45 -99 -21 -145 18 -35 77 -59 120 -48 42 10
30 23 -20 22 -58 -1 -84 26 -84 88 0 57 27 86 80 86 22 0 40 5 40 10 0 6 -20
10 -44 10 -32 0 -52 -6 -71 -23z"/>
<path d="M1970 1775 c0 -8 7 -15 15 -15 8 0 15 7 15 15 0 8 -7 15 -15 15 -8 0
-15 -7 -15 -15z"/>
<path d="M2180 1775 c0 -10 7 -15 18 -13 21 4 19 22 -2 26 -10 2 -16 -3 -16
-13z"/>
<path d="M2690 1685 c0 -124 18 -143 22 -23 l3 82 54 -82 c29 -45 60 -82 67
-82 11 0 14 23 14 105 0 63 -4 105 -10 105 -6 0 -10 -34 -10 -81 0 -52 -4 -78
-10 -74 -6 4 -33 40 -60 81 -28 41 -55 74 -60 74 -6 0 -10 -44 -10 -105z"/>
<path d="M3200 1775 c0 -8 7 -15 15 -15 8 0 15 7 15 15 0 8 -7 15 -15 15 -8 0
-15 -7 -15 -15z"/>
<path d="M1540 1701 c-5 -11 -10 -38 -10 -60 0 -30 6 -44 22 -55 51 -36 108
-4 108 60 0 58 -14 74 -65 74 -34 0 -47 -5 -55 -19z m84 -13 c21 -29 20 -57
-1 -80 -20 -22 -37 -23 -57 -2 -21 20 -20 63 1 86 21 24 39 23 57 -4z"/>
<path d="M1710 1648 c0 -79 18 -93 22 -17 3 55 21 78 52 66 12 -5 16 -20 16
-62 0 -58 19 -79 21 -22 2 63 12 82 44 82 29 0 30 -1 33 -57 2 -32 7 -58 13
-58 6 0 9 27 7 68 l-3 67 -33 3 c-18 2 -39 -2 -47 -8 -9 -8 -15 -8 -20 0 -3 6
-29 10 -56 9 l-49 -2 0 -69z"/>
<path d="M1970 1650 c0 -56 3 -70 15 -70 12 0 15 14 15 70 0 56 -3 70 -15 70
-12 0 -15 -14 -15 -70z"/>
<path d="M2044 1706 c-11 -29 2 -51 36 -62 23 -8 35 -18 35 -30 0 -15 -7 -19
-37 -18 -43 1 -51 -12 -12 -22 40 -10 74 10 74 45 0 25 -6 31 -35 41 -19 6
-38 16 -41 22 -10 16 18 29 49 22 16 -3 27 -1 27 5 0 17 -90 14 -96 -3z"/>
<path d="M2190 1650 c0 -40 4 -70 10 -70 6 0 10 30 10 70 0 40 -4 70 -10 70
-6 0 -10 -30 -10 -70z"/>
<path d="M2271 1706 c-7 -8 -15 -30 -18 -49 -4 -29 -1 -40 21 -62 22 -22 33
-26 59 -21 18 3 38 14 45 23 17 24 15 88 -4 107 -19 20 -87 21 -103 2z m69 -6
c26 -14 34 -57 15 -86 -17 -26 -44 -31 -63 -12 -17 17 -15 74 4 92 18 19 20
19 44 6z"/>
<path d="M2430 1648 c0 -53 3 -68 14 -68 11 0 16 15 18 51 3 55 21 78 52 66
12 -5 16 -20 16 -62 0 -69 17 -73 22 -4 5 81 -2 90 -67 87 l-55 -2 0 -68z"/>
<path d="M2900 1709 c0 -7 11 -9 30 -6 19 4 34 1 45 -9 22 -23 18 -34 -13 -34
-32 0 -72 -25 -72 -45 0 -26 31 -47 59 -40 14 3 38 6 54 5 15 0 27 4 27 10 0
5 -4 10 -10 10 -5 0 -10 22 -10 48 0 26 -5 53 -12 60 -15 15 -98 16 -98 1z
m83 -76 c9 -8 -22 -43 -39 -43 -17 0 -27 18 -20 35 5 15 47 21 59 8z"/>
<path d="M3069 1704 c-23 -28 -17 -93 10 -116 27 -21 72 -21 79 1 3 9 -2 11
-18 6 -52 -16 -83 69 -36 100 13 8 31 13 40 9 9 -3 16 -1 16 5 0 18 -76 13
-91 -5z"/>
<path d="M3200 1650 c0 -56 3 -70 15 -70 12 0 15 14 15 70 0 56 -3 70 -15 70
-12 0 -15 -14 -15 -70z"/>
<path d="M3286 1698 c-19 -27 -21 -78 -3 -101 6 -9 26 -20 44 -23 62 -12 106
68 67 124 -21 31 -87 31 -108 0z m78 -4 c19 -18 21 -75 4 -92 -19 -19 -46 -14
-63 12 -18 28 -11 71 14 86 22 13 27 12 45 -6z"/>
<path d="M3450 1648 c0 -39 4 -68 10 -68 6 0 10 19 10 43 0 54 18 80 51 75 22
-3 24 -8 27 -60 2 -32 7 -58 13 -58 6 0 9 27 7 68 l-3 67 -57 1 -58 1 0 -69z"/>
<path d="M3620 1709 c0 -7 9 -9 22 -6 26 7 58 -8 58 -28 0 -10 -10 -15 -29
-15 -56 0 -83 -60 -37 -81 16 -8 29 -8 43 -1 11 6 29 9 40 6 19 -5 20 -2 15
48 -7 78 -15 88 -67 88 -27 0 -45 -5 -45 -11z m80 -82 c0 -18 -21 -37 -41 -37
-19 0 -29 18 -21 38 6 16 62 16 62 -1z"/>
<path d="M26356 1553 c-10 -49 -40 -193 -67 -322 -27 -129 -47 -236 -44 -239
19 -19 34 25 68 194 20 104 50 249 66 322 26 120 27 132 11 132 -14 0 -21 -18
-34 -87z"/>
<path d="M22939 1567 c-65 -59 -53 -76 21 -30 49 31 57 40 49 55 -13 25 -17
23 -70 -25z"/>
<path d="M25379 1567 c-65 -59 -53 -76 21 -30 49 31 57 40 49 55 -13 25 -17
23 -70 -25z"/>
<path d="M28975 1565 c-68 -59 -50 -75 27 -25 53 35 56 39 40 53 -16 14 -21
12 -67 -28z"/>
<path d="M21697 1594 c-4 -4 -7 -20 -7 -36 0 -25 4 -28 30 -28 34 0 49 23 33
49 -11 17 -44 26 -56 15z"/>
<path d="M22710 1585 c-20 -25 -8 -50 25 -50 24 0 31 5 33 24 6 37 -34 55 -58
26z"/>
<path d="M23822 1585 c-56 -25 -76 -85 -77 -235 0 -193 35 -260 136 -260 36 0
55 6 78 25 16 14 32 34 35 43 2 9 7 26 10 38 5 15 0 23 -18 32 -22 10 -24 8
-29 -16 -3 -15 -15 -40 -27 -55 -28 -36 -74 -34 -101 3 -43 58 -50 271 -12
348 36 73 111 62 134 -20 15 -53 13 -50 33 -42 40 15 5 117 -48 139 -44 18
-71 18 -114 0z"/>
<path d="M25150 1585 c-20 -25 -8 -50 25 -50 24 0 31 5 33 24 6 37 -34 55 -58
26z"/>
<path d="M28752 1591 c-8 -4 -12 -19 -10 -32 2 -19 9 -24 33 -24 33 0 45 25
25 50 -14 17 -29 19 -48 6z"/>
<path d="M20220 1340 l0 -250 23 0 22 0 0 250 0 250 -22 0 -23 0 0 -250z"/>
<path d="M26880 1340 l0 -250 23 0 22 0 0 250 0 250 -22 0 -23 0 0 -250z"/>
<path d="M21475 1490 c-4 -16 -15 -32 -26 -35 -25 -8 -24 -32 1 -40 19 -6 20
-15 20 -141 0 -130 1 -136 25 -159 36 -37 125 -32 125 7 0 18 -5 19 -34 14
-58 -11 -66 6 -66 150 l0 124 50 0 c43 0 50 3 50 20 0 17 -7 20 -50 20 l-50 0
0 35 c0 28 -4 35 -19 35 -13 0 -21 -9 -26 -30z"/>
<path d="M20460 1463 c-8 -3 -23 -12 -32 -21 -16 -14 -18 -13 -18 1 0 10 -8
17 -20 17 -19 0 -20 -7 -20 -185 l0 -185 23 0 c22 0 22 1 22 151 0 146 1 151
24 170 28 23 50 24 77 5 18 -13 19 -27 17 -170 l-2 -156 25 0 24 0 0 155 c0
94 -4 164 -11 179 -16 34 -70 53 -109 39z"/>
<path d="M20980 1459 c-53 -19 -79 -117 -65 -244 9 -91 38 -125 104 -125 53 0
88 26 93 70 4 36 -27 38 -44 3 -10 -20 -22 -29 -45 -31 -43 -4 -63 26 -63 95
l0 53 86 0 86 0 -7 57 c-14 113 -61 153 -145 122z m66 -37 c19 -12 34 -49 34
-81 l0 -31 -60 0 -60 0 0 34 c0 57 50 102 86 78z"/>
<path d="M21243 1456 c-37 -17 -53 -43 -53 -85 0 -48 10 -61 80 -106 71 -45
85 -68 66 -107 -20 -41 -90 -36 -106 8 -8 21 -13 23 -30 14 -19 -10 -19 -13
-5 -40 20 -38 43 -50 98 -50 38 0 49 5 71 31 30 35 34 83 10 117 -8 12 -42 40
-75 62 -49 34 -59 46 -59 70 0 33 23 60 51 60 19 0 53 -28 60 -49 3 -7 12 -9
22 -5 12 4 16 13 11 28 -16 54 -82 78 -141 52z"/>
<path d="M21880 1462 c-32 -10 -60 -65 -60 -120 0 -47 23 -112 40 -112 7 0 8
-6 0 -19 -29 -54 3 -91 78 -91 56 0 82 -17 82 -55 0 -40 -33 -70 -78 -70 -50
0 -72 19 -72 60 0 19 -6 35 -14 38 -40 16 -50 -70 -13 -107 27 -26 91 -41 137
-31 47 10 80 57 80 115 0 62 -30 90 -96 90 -55 0 -74 8 -74 31 0 13 10 20 38
24 87 14 102 35 102 140 0 65 6 75 50 75 13 0 17 5 13 20 -7 26 -38 25 -57 -2
-15 -21 -16 -21 -35 -4 -22 20 -83 29 -121 18z m94 -54 c9 -12 16 -43 16 -68
0 -57 -22 -90 -60 -90 -35 0 -56 20 -65 60 -7 33 2 88 17 108 18 21 75 15 92
-10z"/>
<path d="M22185 1461 c-48 -21 -79 -91 -43 -99 12 -2 21 5 28 22 21 56 102 57
116 1 9 -37 -18 -71 -86 -105 -67 -34 -80 -52 -80 -108 0 -73 83 -109 143 -62
l26 21 21 -21 c30 -30 77 -21 64 13 -3 9 -10 15 -14 12 -20 -12 -29 30 -32
152 -3 117 -5 135 -23 152 -23 23 -90 35 -120 22z m105 -211 c0 -43 -24 -96
-50 -110 -50 -27 -97 20 -71 69 10 18 92 69 114 71 4 0 7 -14 7 -30z"/>
<path d="M22484 1456 c-22 -10 -35 -25 -42 -48 -30 -98 -20 -252 19 -294 31
-33 106 -34 137 -1 32 35 38 73 13 87 -18 9 -21 8 -21 -7 0 -33 -29 -63 -61
-63 -41 0 -59 45 -59 149 0 90 10 125 40 141 31 17 58 3 72 -36 13 -37 16 -38
37 -25 17 11 9 49 -16 80 -23 27 -79 35 -119 17z"/>
<path d="M22908 1459 c-46 -18 -60 -65 -56 -194 4 -136 19 -168 83 -173 89 -8
115 25 123 154 5 92 -10 174 -38 199 -22 20 -77 27 -112 14z m81 -48 c35 -35
39 -205 5 -258 -10 -16 -24 -23 -45 -23 -45 0 -62 47 -57 168 3 84 5 96 27
113 29 24 46 24 70 0z"/>
<path d="M23217 1450 c-22 -18 -27 -19 -27 -6 0 10 -9 16 -25 16 l-25 0 0
-185 0 -185 25 0 25 0 0 145 c0 142 1 147 25 170 29 30 56 32 78 7 14 -16 17
-43 17 -170 l0 -152 26 0 26 0 -4 165 c-3 150 -5 166 -24 185 -31 32 -83 36
-117 10z"/>
<path d="M24162 1445 c-36 -30 -42 -31 -42 -5 0 13 -7 20 -20 20 -19 0 -20 -7
-20 -185 l0 -185 25 0 25 0 0 138 c0 160 7 178 71 188 29 5 39 11 35 21 -4 8
-6 19 -6 24 0 18 -39 9 -68 -16z"/>
<path d="M24353 1460 c-40 -16 -56 -56 -61 -145 -9 -167 17 -225 100 -225 52
0 82 19 96 59 9 26 8 31 -9 36 -11 4 -22 5 -23 3 -1 -1 -7 -15 -14 -30 -9 -21
-18 -28 -40 -28 -41 0 -60 27 -68 93 l-7 57 87 0 86 0 0 51 c0 67 -23 115 -62
128 -36 13 -55 13 -85 1z m77 -48 c13 -11 23 -33 27 -60 l6 -42 -61 0 c-33 0
-63 4 -66 8 -9 15 13 86 30 99 24 17 38 16 64 -5z"/>
<path d="M24625 1461 c-29 -12 -54 -43 -57 -71 -4 -34 25 -38 40 -5 26 56 102
56 116 0 10 -38 -14 -70 -77 -101 -78 -39 -87 -50 -87 -104 0 -36 5 -52 23
-68 30 -28 85 -29 120 -2 l26 21 21 -21 c22 -22 37 -25 59 -11 9 6 10 14 4 26
-5 9 -13 16 -16 16 -4 -1 -11 -1 -17 -1 -6 0 -10 48 -10 124 0 69 -4 136 -10
151 -16 41 -87 65 -135 46z m105 -203 c0 -45 -21 -99 -45 -114 -51 -33 -104
13 -76 65 10 18 92 69 114 71 4 0 7 -10 7 -22z"/>
<path d="M24922 1460 c-46 -20 -72 -145 -53 -259 14 -85 38 -111 101 -111 51
0 71 14 90 65 9 25 8 31 -7 43 -16 11 -19 10 -25 -16 -10 -39 -30 -54 -65 -50
-43 5 -54 37 -51 155 3 90 6 105 25 124 31 31 68 20 84 -26 14 -37 17 -39 38
-26 11 7 11 15 2 44 -7 19 -18 41 -26 47 -19 16 -85 22 -113 10z"/>
<path d="M25344 1456 c-22 -10 -35 -25 -42 -48 -30 -98 -20 -252 19 -294 17
-19 33 -24 69 -24 56 0 87 27 101 87 20 89 4 237 -30 267 -26 23 -80 29 -117
12z m72 -34 c27 -17 38 -60 38 -148 0 -109 -16 -144 -65 -144 -45 0 -62 47
-57 168 3 84 5 96 27 113 25 20 39 23 57 11z"/>
<path d="M25657 1450 c-22 -18 -27 -19 -27 -6 0 10 -9 16 -25 16 l-25 0 0
-185 0 -185 25 0 24 0 3 151 3 152 28 21 c26 19 30 19 55 5 l27 -15 3 -157 3
-157 25 0 26 0 -4 165 c-3 150 -5 166 -24 185 -31 32 -83 36 -117 10z"/>
<path d="M26490 1457 c-37 -19 -53 -62 -58 -157 -7 -146 23 -210 99 -210 86 0
109 39 109 191 0 119 -15 162 -62 178 -40 14 -57 14 -88 -2z m81 -46 c22 -17
24 -29 27 -113 5 -121 -12 -168 -57 -168 -21 0 -35 7 -45 23 -34 53 -26 237
11 265 23 17 37 15 64 -7z"/>
<path d="M27120 1463 c-8 -3 -23 -12 -32 -21 -16 -14 -18 -13 -18 1 0 10 -8
17 -20 17 -19 0 -20 -7 -20 -185 l0 -185 23 0 c22 0 22 1 22 151 0 146 1 151
24 170 28 23 50 24 77 5 17 -13 19 -27 18 -170 l0 -156 23 0 23 0 0 154 c0 85
-4 166 -9 179 -13 33 -72 54 -111 40z"/>
<path d="M27417 1450 c-22 -18 -27 -19 -27 -6 0 10 -9 16 -25 16 l-25 0 0
-185 0 -185 25 0 24 0 3 151 3 152 28 21 c26 19 30 19 55 5 l27 -15 3 -157 3
-157 25 0 26 0 -3 165 c-4 150 -6 166 -25 185 -31 32 -83 36 -117 10z"/>
<path d="M27703 1460 c-40 -17 -56 -56 -61 -145 -9 -167 17 -225 100 -225 84
0 108 42 108 193 0 89 -13 141 -43 165 -20 17 -77 24 -104 12z m67 -40 c26
-14 40 -63 40 -139 0 -73 -13 -130 -32 -143 -22 -13 -54 -9 -71 10 -36 40 -33
226 4 263 21 21 32 23 59 9z"/>
<path d="M28224 1460 c-25 -10 -64 -57 -64 -77 0 -19 33 -30 38 -13 3 8 16 25
29 38 19 18 30 22 51 17 33 -8 42 -21 42 -61 0 -36 -19 -55 -80 -82 -74 -32
-100 -76 -80 -137 14 -41 35 -55 85 -55 25 0 43 8 60 24 24 24 25 24 35 6 20
-37 82 -37 73 0 -3 11 -8 19 -12 18 -29 -3 -31 5 -31 121 0 142 -10 178 -56
197 -37 16 -59 17 -90 4z m96 -230 c0 -41 -5 -56 -25 -75 -28 -29 -57 -32 -79
-9 -35 34 -11 81 59 117 44 22 45 21 45 -33z"/>
<path d="M28520 1457 c-34 -17 -49 -53 -57 -130 -9 -95 4 -172 34 -207 20 -25
32 -30 68 -30 51 0 82 22 94 68 8 27 7 34 -9 42 -15 8 -19 5 -25 -18 -10 -39
-24 -52 -56 -52 -46 0 -59 30 -59 142 0 107 12 146 47 154 24 7 63 -18 63 -40
0 -22 17 -37 34 -30 31 12 -3 88 -47 104 -39 13 -56 13 -87 -3z"/>
<path d="M28943 1460 c-33 -13 -52 -61 -59 -143 -8 -87 8 -172 38 -204 31 -33
106 -32 136 0 42 44 53 205 20 297 -16 48 -81 72 -135 50z m86 -56 c18 -23 21
-41 21 -123 0 -118 -12 -146 -60 -146 -27 0 -37 6 -47 25 -16 32 -17 203 -2
233 24 45 58 49 88 11z"/>
<path d="M29255 1454 c-20 -12 -30 -13 -33 -5 -2 6 -12 11 -23 11 -18 0 -19
-9 -19 -185 l0 -185 25 0 25 0 0 150 c0 137 2 152 20 170 11 11 29 20 40 20
11 0 29 -9 40 -20 18 -18 20 -33 20 -170 l0 -150 26 0 c24 0 26 3 20 31 -3 17
-6 91 -6 164 0 112 -3 136 -17 154 -24 29 -80 36 -118 15z"/>
<path d="M20644 1443 c6 -21 76 -339 76 -347 0 -3 15 -6 33 -6 l33 0 38 173
c21 94 41 178 43 185 3 8 -4 12 -21 12 -14 0 -26 -3 -26 -7 0 -14 -60 -307
-64 -310 -2 -2 -11 36 -20 84 -43 224 -46 233 -73 233 -19 0 -23 -4 -19 -17z"/>
<path d="M21698 1275 l-3 -185 25 0 25 0 0 185 c0 184 0 185 -22 185 -22 0
-22 -2 -25 -185z"/>
<path d="M22710 1275 l0 -185 25 0 25 0 0 185 0 185 -25 0 -25 0 0 -185z"/>
<path d="M25150 1275 l0 -185 25 0 25 0 0 185 0 185 -25 0 -25 0 0 -185z"/>
<path d="M26010 1448 c2 -42 79 -351 90 -358 8 -5 10 -17 6 -36 -11 -41 -24
-54 -57 -54 -30 0 -38 -17 -17 -38 18 -18 44 -14 73 11 23 19 31 47 70 228 24
113 49 217 54 232 10 26 9 27 -19 27 -22 0 -30 -5 -30 -17 1 -29 -53 -293 -59
-293 -4 0 -19 69 -36 153 -28 139 -32 152 -52 155 -14 2 -23 -2 -23 -10z"/>
<path d="M27900 1448 c0 -7 17 -89 38 -183 l39 -170 31 -3 c26 -3 32 1 37 20
34 147 75 334 75 340 0 17 -39 7 -45 -12 -3 -10 -19 -83 -35 -162 -16 -79 -29
-141 -30 -138 -1 3 -16 75 -33 160 -29 142 -34 155 -54 158 -14 2 -23 -2 -23
-10z"/>
<path d="M28750 1275 l0 -185 25 0 25 0 0 185 0 185 -25 0 -25 0 0 -185z"/>
<path d="M1660 1342 c0 -37 -1 -38 -34 -38 -19 0 -41 -6 -50 -13 -21 -18 -30
-70 -17 -104 10 -26 14 -27 66 -26 l55 2 0 109 c0 65 -4 108 -10 108 -5 0 -10
-17 -10 -38z m-16 -58 c23 -9 21 -69 -4 -94 -44 -44 -86 35 -43 82 18 20 23
21 47 12z"/>
<path d="M2660 1342 c0 -37 -1 -38 -36 -38 -45 0 -64 -23 -64 -80 0 -52 15
-65 74 -63 l46 2 0 109 c0 65 -4 108 -10 108 -5 0 -10 -17 -10 -38z m-16 -58
c22 -8 21 -72 -1 -96 -20 -22 -27 -22 -47 -2 -24 23 -20 70 6 88 26 19 22 18
42 10z"/>
<path d="M3350 1355 c-13 -14 -18 -25 -11 -25 19 0 61 31 55 41 -9 14 -19 11
-44 -16z"/>
<path d="M2015 1361 c-3 -6 -21 -53 -40 -105 -26 -72 -31 -96 -21 -96 8 0 19
14 25 30 9 27 14 30 55 30 40 0 45 -3 55 -30 5 -16 15 -30 20 -30 16 0 15 3
-25 112 -33 90 -52 115 -69 89z m38 -73 l16 -48 -36 0 c-32 0 -35 2 -29 25 9
36 26 78 30 74 2 -2 10 -25 19 -51z"/>
<path d="M2730 1355 c0 -8 7 -15 15 -15 8 0 15 7 15 15 0 8 -7 15 -15 15 -8 0
-15 -7 -15 -15z"/>
<path d="M3227 1364 c-9 -10 2 -24 19 -24 8 0 14 7 14 15 0 15 -21 21 -33 9z"/>
<path d="M2830 1324 c0 -9 -9 -18 -20 -21 -26 -7 -26 -23 0 -23 16 0 19 -8 22
-57 3 -55 4 -58 31 -61 15 -2 27 1 27 7 0 6 -3 10 -7 10 -28 -4 -33 4 -33 51
0 43 3 50 20 50 11 0 20 5 20 10 0 6 -9 10 -20 10 -13 0 -20 7 -20 20 0 11 -4
20 -10 20 -5 0 -10 -7 -10 -16z"/>
<path d="M1760 1297 c-13 -7 -28 -26 -33 -42 -17 -61 30 -114 89 -99 34 9 30
25 -4 18 -31 -6 -62 15 -62 42 0 10 13 14 50 14 42 0 50 3 50 18 0 43 -49 70
-90 49z m54 -23 c22 -22 11 -34 -30 -34 -38 0 -47 22 -16 39 23 14 28 14 46
-5z"/>
<path d="M2200 1303 c-44 -17 -63 -68 -44 -118 13 -32 104 -43 104 -13 0 6
-11 7 -25 4 -29 -7 -65 22 -65 54 0 28 38 63 61 57 13 -3 19 -1 16 6 -4 14
-25 18 -47 10z"/>
<path d="M2345 1301 c-11 -5 -26 -6 -32 -4 -10 4 -13 -13 -13 -66 0 -41 4 -71
10 -71 6 0 10 18 10 41 0 50 15 79 40 79 11 0 20 7 20 15 0 17 -5 17 -35 6z"/>
<path d="M2440 1303 c-26 -9 -40 -35 -40 -73 0 -59 24 -77 98 -72 12 1 22 7
22 13 0 7 -10 9 -26 5 -30 -8 -74 16 -74 39 0 11 13 15 50 15 46 0 50 2 50 24
0 38 -42 63 -80 49z m48 -25 c24 -24 13 -38 -28 -38 -44 0 -48 5 -23 32 19 21
34 23 51 6z"/>
<path d="M2948 1303 c-10 -2 -18 -9 -18 -15 0 -6 11 -8 26 -4 28 7 54 -7 54
-30 0 -8 -11 -14 -26 -14 -39 0 -64 -18 -64 -45 0 -31 30 -48 63 -36 14 5 34
7 46 4 21 -5 29 11 11 22 -5 3 -10 29 -10 56 0 44 -3 51 -26 59 -26 10 -28 11
-56 3z m62 -98 c0 -21 -47 -42 -62 -27 -6 6 -8 18 -5 26 8 21 67 22 67 1z"/>
<path d="M3130 1303 c-47 -17 -68 -86 -37 -126 17 -23 97 -28 97 -6 0 7 -10 9
-25 5 -35 -9 -69 26 -60 62 8 35 34 54 63 47 25 -6 31 10 6 19 -18 7 -23 7
-44 -1z"/>
<path d="M3340 1303 c-27 -10 -40 -36 -40 -79 0 -26 6 -47 16 -55 24 -20 84
-16 100 6 17 23 18 86 2 108 -14 18 -55 29 -78 20z m56 -39 c13 -19 15 -32 8
-51 -14 -40 -39 -51 -63 -29 -25 23 -27 63 -4 88 22 25 39 23 59 -8z"/>
<path d="M3525 1301 c-11 -5 -26 -6 -32 -4 -10 4 -13 -13 -13 -66 0 -81 17
-97 22 -20 2 38 8 55 23 65 32 21 48 2 53 -60 2 -31 8 -56 13 -56 11 0 12 110
1 126 -10 16 -44 24 -67 15z"/>
<path d="M2740 1230 c0 -40 4 -70 10 -70 6 0 10 30 10 70 0 40 -4 70 -10 70
-6 0 -10 -30 -10 -70z"/>
<path d="M3230 1230 c0 -40 4 -70 10 -70 6 0 10 30 10 70 0 40 -4 70 -10 70
-6 0 -10 -30 -10 -70z"/>
<path d="M23457 1153 c-15 -15 -7 -55 13 -60 11 -3 20 -10 20 -15 0 -17 -30
-67 -46 -76 -9 -5 -14 -15 -10 -21 9 -15 42 8 67 46 21 32 25 103 7 121 -13
13 -41 16 -51 5z"/>
<path d="M2313 925 c-41 -17 -53 -42 -53 -105 0 -71 29 -100 100 -100 37 0 50
4 50 14 0 11 -9 13 -34 9 -28 -4 -39 -1 -60 20 -56 56 -16 154 60 145 22 -3
34 0 34 8 0 26 -48 30 -97 9z"/>
<path d="M2450 830 c0 -89 3 -110 14 -110 11 0 16 15 18 51 6 95 68 93 68 -2
0 -37 4 -49 15 -49 25 0 21 112 -6 135 -17 16 -25 17 -50 8 l-29 -11 0 44 c0
32 -4 44 -15 44 -12 0 -15 -19 -15 -110z"/>
<path d="M2627 934 c-14 -15 -6 -34 14 -34 14 0 19 5 17 17 -3 18 -20 27 -31
17z"/>
<path d="M2710 830 c0 -105 1 -110 21 -110 17 0 20 4 15 23 -3 12 -6 61 -6
110 0 71 -3 87 -15 87 -12 0 -15 -19 -15 -110z"/>
<path d="M2805 845 c-29 -28 -32 -70 -9 -103 12 -17 25 -22 60 -22 30 0 44 4
44 13 0 9 -9 12 -28 9 -30 -4 -67 22 -57 39 4 5 26 9 51 9 37 0 44 3 44 20 0
26 -34 60 -60 60 -12 0 -32 -11 -45 -25z m73 -22 c2 -9 -7 -13 -27 -13 -30 0
-39 9 -24 24 11 10 46 3 51 -11z"/>
<path d="M2630 790 c0 -56 3 -70 15 -70 12 0 15 14 15 70 0 56 -3 70 -15 70
-12 0 -15 -14 -15 -70z"/>
</g>
</svg>
